{"asset":{"generator":"Khronos glTF Blender I/O v5.2.39","version":"2.0"},"extensionsUsed":["KHR_materials_transmission"],"scene":0,"scenes":[{"extras":{"spartan_manual_manifest":"C:\\Users\\suean\\AppData\\Local\\Temp\\3dgenstudio-meshtools\\spartan-manual\\b9df52c9d772458e9decc94725744f7f\\session.json","spartan_manual_status":"Saving a recovery checkpoint…","spartan_manual_alignment":"{\"height_scale\":0.955616,\"arm_span_scale\":1.19452,\"target_height\":1.828716,\"reference_height\":1.828716,\"aspect_error\":0.374993,\"extremity_fit\":{\"enabled\":true,\"coordinate_space\":\"blender_z_up\",\"adjusted\":2,\"landmarks\":[{\"landmark\":\"wrist_l\",\"adjusted\":false,\"reason\":\"insufficient surface samples\",\"samples\":0},{\"landmark\":\"wrist_r\",\"adjusted\":false,\"reason\":\"insufficient surface samples\",\"samples\":0},{\"landmark\":\"ankle_l\",\"adjusted\":true,\"samples\":470,\"samples_after\":470,\"before_error\":0.093591,\"after_error\":0.000106,\"shift\":[-0.074718,0.05636,0.0],\"clamped\":false},{\"landmark\":\"ankle_r\",\"adjusted\":true,\"samples\":471,\"samples_after\":471,\"before_error\":0.0936,\"after_error\":0.0001,\"shift\":[0.074726,0.056364,0.0],\"clamped\":false}],\"max_residual\":0.000106}}","spartan_manual_extremity_fit":"{\"enabled\":true,\"coordinate_space\":\"blender_z_up\",\"adjusted\":2,\"landmarks\":[{\"landmark\":\"wrist_l\",\"adjusted\":false,\"reason\":\"insufficient surface samples\",\"samples\":0},{\"landmark\":\"wrist_r\",\"adjusted\":false,\"reason\":\"insufficient surface samples\",\"samples\":0},{\"landmark\":\"ankle_l\",\"adjusted\":true,\"samples\":470,\"samples_after\":470,\"before_error\":0.093591,\"after_error\":0.000106,\"shift\":[-0.074718,0.05636,0.0],\"clamped\":false},{\"landmark\":\"ankle_r\",\"adjusted\":true,\"samples\":471,\"samples_after\":471,\"before_error\":0.0936,\"after_error\":0.0001,\"shift\":[0.074726,0.056364,0.0],\"clamped\":false}],\"max_residual\":0.000106}","spartan_manual_extremities":"{\"enabled\":true,\"collapsed_bones\":32,\"moved_vertices\":1943,\"moved_assignments\":1943,\"moved_weight\":616.099853}","spartan_manual_material_fixes":"{\"examined\":10,\"normal_rewired\":0,\"overmetallic_removed\":0,\"preserved\":10}","spartan_manual_action":"Driving_Loop","spartan_manual_preview_visible":0,"spartan_manual_rigid_bone":2},"name":"Scene","nodes":[34]}],"nodes":[{"extras":{"spartan_schema":1,"spartan_zone":"forearm_l","spartan_cap_side":"body","spartan_hidden_default":true,"spartan_restore_scale":"1,1,1","spartan_radius":0.14},"mesh":0,"name":"SPARTAN_gore_cap_forearm_l_body","scale":[0,0,0],"translation":[0.46629995107650757,1.4408009052276611,-0.07010011374950409]},{"extras":{"spartan_schema":1,"spartan_zone":"forearm_r","spartan_cap_side":"body","spartan_hidden_default":true,"spartan_restore_scale":"1,1,1","spartan_radius":0.14},"mesh":1,"name":"SPARTAN_gore_cap_forearm_r_body","scale":[0,0,0],"translation":[-0.46629995107650757,1.4408005475997925,-0.07010023295879364]},{"extras":{"spartan_schema":1,"spartan_zone":"head","spartan_cap_side":"body","spartan_hidden_default":true,"spartan_restore_scale":"1,1,1","spartan_radius":0.15},"mesh":2,"name":"SPARTAN_gore_cap_head_body","scale":[0,0,0],"translation":[0,1.5686997175216675,0.005099689122289419]},{"extras":{"spartan_schema":1,"spartan_zone":"shin_l","spartan_cap_side":"body","spartan_hidden_default":true,"spartan_restore_scale":"1,1,1","spartan_radius":0.18},"mesh":3,"name":"SPARTAN_gore_cap_shin_l_body","scale":[0,0,0],"translation":[0.08899999409914017,0.5318002700805664,-0.0014001879608258605]},{"extras":{"spartan_schema":1,"spartan_zone":"shin_r","spartan_cap_side":"body","spartan_hidden_default":true,"spartan_restore_scale":"1,1,1","spartan_radius":0.18},"mesh":4,"name":"SPARTAN_gore_cap_shin_r_body","scale":[0,0,0],"translation":[-0.08900000154972076,0.5318001508712769,-0.0014001877279952168]},{"extras":{"spartan_schema":1,"spartan_zone":"thigh_l","spartan_cap_side":"body","spartan_hidden_default":true,"spartan_restore_scale":"1,1,1","spartan_radius":0.21},"mesh":5,"name":"SPARTAN_gore_cap_thigh_l_body","scale":[0,0,0],"translation":[0.08899997174739838,0.9320998787879944,0.0013998787617310882]},{"extras":{"spartan_schema":1,"spartan_zone":"thigh_r","spartan_cap_side":"body","spartan_hidden_default":true,"spartan_restore_scale":"1,1,1","spartan_radius":0.21},"mesh":6,"name":"SPARTAN_gore_cap_thigh_r_body","scale":[0,0,0],"translation":[-0.08899997919797897,0.9320998787879944,0.0013998794602230191]},{"extras":{"spartan_schema":1,"spartan_zone":"upper_arm_l","spartan_cap_side":"body","spartan_hidden_default":true,"spartan_restore_scale":"1,1,1","spartan_radius":0.16},"mesh":7,"name":"SPARTAN_gore_cap_upper_arm_l_body","scale":[0,0,0],"translation":[0.1918998807668686,1.440800666809082,-0.06540019065141678]},{"extras":{"spartan_schema":1,"spartan_zone":"upper_arm_r","spartan_cap_side":"body","spartan_hidden_default":true,"spartan_restore_scale":"1,1,1","spartan_radius":0.16},"mesh":8,"name":"SPARTAN_gore_cap_upper_arm_r_body","scale":[0,0,0],"translation":[-0.19189992547035217,1.4408005475997925,-0.06540025770664215]},{"name":"DEF-head","rotation":[-0.07867421954870224,1.922139958310254e-08,-1.1112923026246335e-08,0.9969003796577454],"translation":[-5.826719315371598e-15,0.08258625864982605,4.330649971961975e-08]},{"children":[9],"name":"DEF-neck","rotation":[0.11098597198724747,-5.90763882257761e-10,1.360306800535227e-08,0.9938219785690308],"scale":[1,0.9999999403953552,0.9999999403953552],"translation":[1.1945091556240638e-15,0.1728910207748413,-5.587935447692871e-09]},{"name":"DEF-hand.L","rotation":[-0.00861959345638752,-4.5893901301496953e-07,-2.1063023325496033e-07,0.9999628663063049],"translation":[4.054057853863924e-07,0.27264076471328735,5.584638529398944e-09]},{"children":[11],"name":"DEF-forearm.L","rotation":[0.0171822477132082,-2.049365866696462e-05,5.696671223631711e-07,0.9998524188995361],"translation":[6.623821491302806e-09,0.2744404375553131,-1.7280399333685637e-09]},{"children":[12],"name":"DEF-upper_arm.L","rotation":[0.18026964366436005,0.6838499307632446,-0.1798364520072937,0.6837477684020996],"scale":[0.9999999403953552,1,1],"translation":[-0.030072331428527832,0.21858161687850952,-0.016967592760920525]},{"children":[13],"name":"DEF-shoulder.L","rotation":[-0.6040205359458923,-0.34510308504104614,-0.3567177653312683,0.6235507130622864],"scale":[1,0.9999998807907104,0.9999999403953552],"translation":[0.01879996806383133,0.14055415987968445,0.08089503645896912]},{"name":"DEF-hand.R","rotation":[-0.008619675412774086,4.768172630065237e-07,-6.816199160653014e-09,0.9999628663063049],"scale":[1,0.9999999403953552,0.9999999403953552],"translation":[2.4526407571556774e-08,0.2726404368877411,-8.213874025386758e-11]},{"children":[15],"name":"DEF-forearm.R","rotation":[0.017182381823658943,2.0475379642448388e-05,-3.6076582432542637e-07,0.9998524188995361],"translation":[-2.457907157804584e-07,0.27444031834602356,-5.392212187871337e-08]},{"children":[16],"name":"DEF-upper_arm.R","rotation":[0.18026965856552124,-0.6838499903678894,0.1798364818096161,0.6837477087974548],"scale":[1.0000001192092896,1.000000238418579,1],"translation":[0.030072301626205444,0.2185816913843155,-0.016967957839369774]},{"children":[17],"name":"DEF-shoulder.R","rotation":[-0.6040207147598267,0.3451029658317566,0.356717586517334,0.6235507726669312],"scale":[1.0000001192092896,1,1],"translation":[-0.018799982964992523,0.140554279088974,0.08089503645896912]},{"children":[10,14,18],"name":"DEF-spine.003","rotation":[-0.0002685748040676117,4.5332262388342315e-09,-3.185849500875193e-11,1],"scale":[1,0.9999999403953552,1],"translation":[-9.174578075878646e-16,0.14127163589000702,2.7939677238464355e-09]},{"children":[19],"name":"DEF-spine.002","rotation":[-0.07727997750043869,-1.8421220104869462e-08,-1.0245027048938482e-08,0.9970094561576843],"scale":[1,0.9999999403953552,0.9999999403953552],"translation":[2.668849197900742e-15,0.12403460592031479,-2.4097971618175507e-08]},{"children":[20],"name":"DEF-spine.001","rotation":[-0.06470265239477158,-2.7924816237145933e-08,-1.158372242571204e-08,0.9979045987129211],"translation":[1.2909172598344221e-14,0.13817644119262695,-4.377216100692749e-08]},{"name":"DEF-toe.L","rotation":[0.00013703401782549918,-0.964306652545929,0.2647876739501953,0.0004997792420908809],"scale":[1,0.9999998807907104,0.9999998807907104],"translation":[3.912646207027137e-09,0.173300638794899,-4.9731170292943716e-08]},{"children":[22],"name":"DEF-foot.L","rotation":[-0.5290713310241699,-0.00032809434924274683,0.00034345293533988297,0.8485772609710693],"scale":[1,0.9999999403953552,0.9999999403953552],"translation":[7.74480213294737e-09,0.4294796884059906,6.257323548197746e-10]},{"children":[23],"name":"DEF-shin.L","rotation":[0.036585841327905655,-0.0001312827953370288,-4.782408723258413e-06,0.9993305206298828],"scale":[0.9999999403953552,1,1],"translation":[8.25867996212537e-09,0.4003095328807831,-9.463541061904834e-11]},{"children":[24],"name":"DEF-thigh.L","rotation":[0.9924845099449158,1.6591187090853055e-08,2.1061073596229107e-07,0.12237059324979782],"scale":[1,1,0.9999968409538269],"translation":[0.08899994939565659,0.02777082845568657,0.04602378234267235]},{"name":"DEF-toe.R","rotation":[0.00013706579920835793,-0.9643064141273499,0.2647884786128998,0.0004996640491299331],"translation":[-3.4879121812991798e-09,0.17330020666122437,-5.5588316172361374e-08]},{"children":[26],"name":"DEF-foot.R","rotation":[-0.5290708541870117,-0.000328094232827425,0.00034345246967859566,0.8485775589942932],"scale":[1,1.0000001192092896,1],"translation":[3.005879989359528e-08,0.42947959899902344,-4.356479621492326e-09]},{"children":[27],"name":"DEF-shin.R","rotation":[0.03658570721745491,-0.00013130063598509878,-4.781737516168505e-06,0.9993305206298828],"scale":[0.9999999403953552,1,1],"translation":[-1.4276105630983693e-08,0.40030959248542786,4.05625755206529e-10]},{"children":[28],"name":"DEF-thigh.R","rotation":[0.9924845099449158,1.877839217456767e-08,2.2835006063814944e-07,0.12237036228179932],"scale":[1,1,1.0000003576278687],"translation":[-0.08900000154972076,0.027770889922976494,0.04602373391389847]},{"children":[21,25,29],"name":"DEF-hips","rotation":[0.1258409023284912,7.327680151547611e-08,1.6755659970613124e-08,0.9920504689216614],"scale":[1,1,0.9999999403953552],"translation":[2.9702094117567412e-09,0.9166997671127319,-0.05010002478957176]},{"children":[30],"name":"root","rotation":[-8.557136332854043e-09,2.9642793109019294e-08,-5.073148195275574e-16,1]},{"extras":{"spartan_manual_target":true,"spartan_manual_object_matrix":"[1.1042840480804443,0.003148843301460147,-0.005136582069098949,0.0,-0.002948831068351865,1.103478193283081,0.042505454272031784,0.0,0.005253958981484175,-0.04249110445380211,1.1034702062606812,0.0,0.0,0.0,0.0,1.0]","spartan_manual_transfer_complete":true,"spartan_zone_attribute":"TEXCOORD_2.x_float32","spartan_zone_values":"{\"torso\":0,\"head\":1,\"upper_arm_l\":2,\"forearm_l\":3,\"upper_arm_r\":4,\"forearm_r\":5,\"thigh_l\":6,\"shin_l\":7,\"thigh_r\":8,\"shin_r\":9}","spartan_schema":1,"spartan_rig_profile":"spartan_ual1_v1","spartan_asset_stage":"dismemberment_body"},"mesh":9,"name":"SPARTAN_character_body","skin":0},{"children":[32,31],"extras":{"spartan_manual_canonical_rig":true,"spartan_manual_rest_snapshot":"{\"root\":{\"head\":[0.0,0.0,0.0],\"tail\":[0.0,3.142413262935406e-08,0.9180680513381958],\"roll\":3.422854533141617e-08},\"DEF-hips\":{\"head\":[0.0,0.05010004714131355,0.9166999459266663],\"tail\":[0.0,0.024139951914548874,1.0173799991607666],\"roll\":6.664001972467304e-08},\"DEF-spine.001\":{\"head\":[0.0,0.015600074082612991,1.0504999160766602],\"tail\":[0.0,0.00040008220821619034,1.1735999584197998],\"roll\":1.2665987014770508e-07},\"DEF-spine.002\":{\"head\":[0.0,0.00040010811062529683,1.1735999584197998],\"tail\":[0.0,0.004900156054645777,1.3148000240325928],\"roll\":6.244724204407248e-08},\"DEF-spine.003\":{\"head\":[0.0,0.004900154657661915,1.3148000240325928],\"tail\":[0.0,0.010188160464167595,1.4779711961746216],\"roll\":5.960464477539063e-08},\"DEF-neck\":{\"head\":[0.0,0.010500232689082623,1.4876000881195068],\"tail\":[0.0,-0.0050997259095311165,1.5687000751495361],\"roll\":6.143906006172983e-08},\"DEF-head\":{\"head\":[0.0,-0.005099722184240818,1.5686999559402466],\"tail\":[0.0,-0.0077851684764027596,1.651242971420288],\"roll\":9.685754776000977e-08},\"DEF-shoulder.L\":{\"head\":[0.01879999041557312,-0.07139978557825089,1.4579001665115356],\"tail\":[0.20950114727020264,0.04086459428071976,1.4577653408050537],\"roll\":0.0003997920430265367},\"DEF-upper_arm.L\":{\"head\":[0.19189992547035217,0.06540020555257797,1.4408003091812134],\"tail\":[0.46629995107650757,0.07010018825531006,1.4408003091812134],\"roll\":1.5708369016647339},\"DEF-forearm.L\":{\"head\":[0.4662999212741852,0.07010018825531006,1.4408005475997925],\"tail\":[0.7389000654220581,0.06540018320083618,1.440800666809082],\"roll\":1.5707956552505493},\"DEF-hand.L\":{\"head\":[0.7389000058174133,0.06540018320083618,1.440800428390503],\"tail\":[0.7878292202949524,0.06540017575025558,1.440800428390503],\"roll\":1.5707952976226807},\"DEF-f_index.01.L\":{\"head\":[0.858799934387207,0.034500181674957275,1.438800573348999],\"tail\":[0.8994999527931213,0.034500185400247574,1.438800573348999],\"roll\":-3.1415858268737793},\"DEF-f_index.02.L\":{\"head\":[0.8994999527931213,0.034500185400247574,1.4388004541397095],\"tail\":[0.9342999458312988,0.03450018912553787,1.4388004541397095],\"roll\":-3.1415858268737793},\"DEF-f_index.03.L\":{\"head\":[0.9342999458312988,0.034500181674957275,1.4388004541397095],\"tail\":[0.9690999388694763,0.034500185400247574,1.4388004541397095],\"roll\":-3.1415858268737793},\"DEF-f_middle.01.L\":{\"head\":[0.8604999780654907,0.060200173407793045,1.4412007331848145],\"tail\":[0.9027999639511108,0.06220017746090889,1.4412007331848145],\"roll\":-3.1415858268737793},\"DEF-f_middle.02.L\":{\"head\":[0.9027999639511108,0.06220018491148949,1.441200852394104],\"tail\":[0.9366999864578247,0.06370019167661667,1.441200852394104],\"roll\":-3.1415858268737793},\"DEF-f_middle.03.L\":{\"head\":[0.9366999864578247,0.06370018422603607,1.441200852394104],\"tail\":[0.9705965518951416,0.06527677923440933,1.441200852394104],\"roll\":-3.1415858268737793},\"DEF-f_pinky.01.L\":{\"head\":[0.8465997576713562,0.10620015114545822,1.439200758934021],\"tail\":[0.8867997527122498,0.10890015214681625,1.439200758934021],\"roll\":-3.1415858268737793},\"DEF-f_pinky.02.L\":{\"head\":[0.8867997527122498,0.10890014469623566,1.4392009973526],\"tail\":[0.9143998026847839,0.11080014705657959,1.4392009973526],\"roll\":-3.1415858268737793},\"DEF-f_pinky.03.L\":{\"head\":[0.9143998026847839,0.11080015450716019,1.4392009973526],\"tail\":[0.9420021772384644,0.11266651004552841,1.4392009973526],\"roll\":-3.1415858268737793},\"DEF-f_ring.01.L\":{\"head\":[0.8579998016357422,0.0825001671910286,1.4409005641937256],\"tail\":[0.8972999453544617,0.08390016853809357,1.4409005641937256],\"roll\":-3.1415858268737793},\"DEF-f_ring.02.L\":{\"head\":[0.8972998857498169,0.08390016853809357,1.4409005641937256],\"tail\":[0.9281999468803406,0.0850001722574234,1.4409005641937256],\"roll\":-3.1415860652923584},\"DEF-f_ring.03.L\":{\"head\":[0.9281999468803406,0.085000179708004,1.4409008026123047],\"tail\":[0.9590975642204285,0.0861661285161972,1.4409008026123047],\"roll\":-3.1415860652923584},\"DEF-thumb.01.L\":{\"head\":[0.7661998867988586,0.03180016204714775,1.4180008172988892],\"tail\":[0.8003998398780823,0.014100180938839912,1.3988008499145508],\"roll\":-1.0599992275238037},\"DEF-thumb.02.L\":{\"head\":[0.8003998398780823,0.014100207015872002,1.3988008499145508],\"tail\":[0.8393996953964233,-0.0060997456312179565,1.3769007921218872],\"roll\":-1.0599985122680664},\"DEF-thumb.03.L\":{\"head\":[0.8393998146057129,-0.00609975541010499,1.3769010305404663],\"tail\":[0.8784341216087341,-0.026277480646967888,1.3550419807434082],\"roll\":-1.061496615409851},\"DEF-shoulder.R\":{\"head\":[-0.01879999041557312,-0.07139978557825089,1.4579001665115356],\"tail\":[-0.20950116217136383,0.040864601731300354,1.4577653408050537],\"roll\":-0.0003997919848188758},\"DEF-upper_arm.R\":{\"head\":[-0.19189992547035217,0.06540019810199738,1.4408003091812134],\"tail\":[-0.4662998914718628,0.07010016590356827,1.4408003091812134],\"roll\":-1.5708370208740234},\"DEF-forearm.R\":{\"head\":[-0.466299831867218,0.07010018080472946,1.4408003091812134],\"tail\":[-0.738899827003479,0.06540010869503021,1.4408003091812134],\"roll\":-1.570796251296997},\"DEF-hand.R\":{\"head\":[-0.7388997673988342,0.06540010869503021,1.4408001899719238],\"tail\":[-0.7878291010856628,0.06540009379386902,1.4408001899719238],\"roll\":-1.5707952976226807},\"DEF-f_index.01.R\":{\"head\":[-0.8587995767593384,0.034500062465667725,1.43880033493042],\"tail\":[-0.8994996547698975,0.03450005501508713,1.43880033493042],\"roll\":3.1415858268737793},\"DEF-f_index.02.R\":{\"head\":[-0.8994996547698975,0.03450005501508713,1.43880033493042],\"tail\":[-0.9342997074127197,0.03450004756450653,1.43880033493042],\"roll\":3.1415858268737793},\"DEF-f_index.03.R\":{\"head\":[-0.934299647808075,0.03450005501508713,1.4388004541397095],\"tail\":[-0.9690996408462524,0.03450004756450653,1.4388004541397095],\"roll\":3.1415858268737793},\"DEF-f_middle.01.R\":{\"head\":[-0.8604996800422668,0.06020006164908409,1.4412003755569458],\"tail\":[-0.9027997255325317,0.06220005080103874,1.4412003755569458],\"roll\":3.1415858268737793},\"DEF-f_middle.02.R\":{\"head\":[-0.9027997255325317,0.062200047075748444,1.4412004947662354],\"tail\":[-0.9366997480392456,0.06370004266500473,1.4412004947662354],\"roll\":3.1415858268737793},\"DEF-f_middle.03.R\":{\"head\":[-0.9366997480392456,0.06370005011558533,1.441200613975525],\"tail\":[-0.9705963134765625,0.0652766302227974,1.441200613975525],\"roll\":3.1415858268737793},\"DEF-f_pinky.01.R\":{\"head\":[-0.8465996384620667,0.10620006173849106,1.4392004013061523],\"tail\":[-0.8867996335029602,0.1089000478386879,1.4392004013061523],\"roll\":3.1415858268737793},\"DEF-f_pinky.02.R\":{\"head\":[-0.8867995738983154,0.1089000552892685,1.439200520515442],\"tail\":[-0.9143996834754944,0.11080005019903183,1.439200520515442],\"roll\":3.1415858268737793},\"DEF-f_pinky.03.R\":{\"head\":[-0.9143996834754944,0.11080004274845123,1.4392004013061523],\"tail\":[-0.9420020580291748,0.11266639083623886,1.4392004013061523],\"roll\":3.1415858268737793},\"DEF-f_ring.01.R\":{\"head\":[-0.8579995632171631,0.08250006288290024,1.4408999681472778],\"tail\":[-0.8972996473312378,0.08390004932880402,1.4408999681472778],\"roll\":3.1415860652923584},\"DEF-f_ring.02.R\":{\"head\":[-0.8972996473312378,0.08390005677938461,1.4409000873565674],\"tail\":[-0.9281997084617615,0.08500005304813385,1.4409000873565674],\"roll\":3.1415860652923584},\"DEF-f_ring.03.R\":{\"head\":[-0.9281997084617615,0.08500006049871445,1.4409003257751465],\"tail\":[-0.9590973854064941,0.08616600185632706,1.4409003257751465],\"roll\":3.1415860652923584},\"DEF-thumb.01.R\":{\"head\":[-0.7661997079849243,0.03180008754134178,1.4180004596710205],\"tail\":[-0.8003998398780823,0.01410001888871193,1.3988004922866821],\"roll\":1.0600024461746216},\"DEF-thumb.02.R\":{\"head\":[-0.8003997206687927,0.014100056141614914,1.398800253868103],\"tail\":[-0.839399516582489,-0.006099868565797806,1.376900315284729],\"roll\":1.0600008964538574},\"DEF-thumb.03.R\":{\"head\":[-0.8393996357917786,-0.006099873222410679,1.3769004344940186],\"tail\":[-0.878433883190155,-0.0262775756418705,1.3550413846969604],\"roll\":1.0614956617355347},\"DEF-thigh.L\":{\"head\":[0.08899997919797897,-0.001399931963533163,0.9320999979972839],\"tail\":[0.08899997919797897,0.0013999994844198227,0.5318000316619873],\"roll\":6.13277890693098e-08},\"DEF-shin.L\":{\"head\":[0.08899998664855957,0.0013999987859278917,0.5318001508712769],\"tail\":[0.08899998664855957,0.03579995781183243,0.10370007157325745],\"roll\":-0.00026252129464410245},\"DEF-foot.L\":{\"head\":[0.08899997174739838,0.035799942910671234,0.10370022058486938],\"tail\":[0.08899997174739838,-0.11320009082555771,0.015200175344944],\"roll\":-0.0010358026484027505},\"DEF-toe.L\":{\"head\":[0.08899999409914017,-0.11320005357265472,0.015200218185782433],\"tail\":[0.08899999409914017,-0.2865011394023895,0.015200196765363216],\"roll\":1.3143797161774273e-07},\"DEF-thigh.R\":{\"head\":[-0.08899997919797897,-0.001399931963533163,0.9320999979972839],\"tail\":[-0.08899997919797897,0.00139999995008111,0.5318000316619873],\"roll\":6.111527284247131e-08},\"DEF-shin.R\":{\"head\":[-0.08899999409914017,0.0013999990187585354,0.5318001508712769],\"tail\":[-0.08899999409914017,0.03579995408654213,0.10370013117790222],\"roll\":-0.00026252129464410245},\"DEF-foot.R\":{\"head\":[-0.08899997919797897,0.035799939185380936,0.10370030999183655],\"tail\":[-0.08899997919797897,-0.1132000982761383,0.015200264751911163],\"roll\":-0.0010358026484027505},\"DEF-toe.R\":{\"head\":[-0.08899998664855957,-0.11320006102323532,0.015200307592749596],\"tail\":[-0.08899998664855957,-0.2865011394023895,0.01520028617233038],\"roll\":1.3143798582859745e-07}}"},"name":"SPARTAN_Skeleton"},{"children":[0,1,2,3,4,5,6,7,8,33],"extras":{"spartan_schema":1,"spartan_rig_profile":"spartan_ual1_v1","spartan_asset_stage":"dismemberment_body","spartan_zone_attribute":"TEXCOORD_2.x_float32_zone_id"},"name":"SPARTAN_BODY_ROOT"}],"materials":[{"doubleSided":true,"extras":{"spartan_material_role":"flesh"},"name":"SPARTAN_Flesh","pbrMetallicRoughness":{"baseColorFactor":[0.3199999928474426,0.006000000052154064,0.012000000104308128,1],"metallicFactor":0,"roughnessFactor":0.6800000071525574}},{"doubleSided":true,"name":"M_Armor3","normalTexture":{"index":0},"occlusionTexture":{"index":1},"pbrMetallicRoughness":{"baseColorTexture":{"index":2},"metallicRoughnessTexture":{"index":1},"roughnessFactor":0.800000011920929}},{"doubleSided":true,"name":"M_Face","normalTexture":{"index":3},"pbrMetallicRoughness":{"baseColorTexture":{"index":4},"metallicFactor":0,"metallicRoughnessTexture":{"index":5}}},{"doubleSided":true,"name":"M_Eyes","normalTexture":{"index":6},"pbrMetallicRoughness":{"baseColorTexture":{"index":7},"metallicFactor":0,"metallicRoughnessTexture":{"index":8},"roughnessFactor":0}},{"doubleSided":true,"name":"M_Body","normalTexture":{"index":9},"pbrMetallicRoughness":{"baseColorTexture":{"index":10},"metallicFactor":0,"metallicRoughnessTexture":{"index":11}}},{"doubleSided":true,"name":"M_Armor","normalTexture":{"index":12},"occlusionTexture":{"index":13},"pbrMetallicRoughness":{"baseColorTexture":{"index":14},"metallicRoughnessTexture":{"index":13}}},{"doubleSided":true,"name":"M_Armor2","normalTexture":{"index":15},"occlusionTexture":{"index":16},"pbrMetallicRoughness":{"baseColorTexture":{"index":17},"metallicRoughnessTexture":{"index":16},"roughnessFactor":0.800000011920929}},{"alphaMode":"BLEND","doubleSided":true,"extensions":{"KHR_materials_transmission":{"transmissionFactor":1}},"name":"M_Sclera","pbrMetallicRoughness":{"baseColorFactor":[0.800000011920929,0.800000011920929,0.800000011920929,0.25],"metallicFactor":0,"roughnessFactor":0.8211145401000977}},{"alphaCutoff":0.36437228322029114,"alphaMode":"MASK","doubleSided":true,"name":"M_Crest","normalTexture":{"index":18},"pbrMetallicRoughness":{"baseColorTexture":{"index":19},"metallicFactor":0,"metallicRoughnessTexture":{"index":20}}},{"doubleSided":true,"name":"Armor","normalTexture":{"index":21},"occlusionTexture":{"index":22},"pbrMetallicRoughness":{"baseColorTexture":{"index":23},"metallicRoughnessTexture":{"index":22}}},{"doubleSided":true,"name":"Armor2","normalTexture":{"index":24},"occlusionTexture":{"index":25},"pbrMetallicRoughness":{"baseColorTexture":{"index":26},"metallicRoughnessTexture":{"index":25}}}],"meshes":[{"name":"SPARTAN_gore_cap_forearm_l_body_mesh","primitives":[{"attributes":{"POSITION":0,"NORMAL":1,"TEXCOORD_0":2},"indices":3,"material":0}]},{"name":"SPARTAN_gore_cap_forearm_r_body_mesh","primitives":[{"attributes":{"POSITION":4,"NORMAL":5,"TEXCOORD_0":6},"indices":7,"material":0}]},{"name":"SPARTAN_gore_cap_head_body_mesh","primitives":[{"attributes":{"POSITION":8,"NORMAL":9,"TEXCOORD_0":10},"indices":11,"material":0}]},{"name":"SPARTAN_gore_cap_shin_l_body_mesh","primitives":[{"attributes":{"POSITION":12,"NORMAL":13,"TEXCOORD_0":14},"indices":15,"material":0}]},{"name":"SPARTAN_gore_cap_shin_r_body_mesh","primitives":[{"attributes":{"POSITION":16,"NORMAL":17,"TEXCOORD_0":18},"indices":15,"material":0}]},{"name":"SPARTAN_gore_cap_thigh_l_body_mesh","primitives":[{"attributes":{"POSITION":19,"NORMAL":20,"TEXCOORD_0":21},"indices":22,"material":0}]},{"name":"SPARTAN_gore_cap_thigh_r_body_mesh","primitives":[{"attributes":{"POSITION":23,"NORMAL":24,"TEXCOORD_0":25},"indices":22,"material":0}]},{"name":"SPARTAN_gore_cap_upper_arm_l_body_mesh","primitives":[{"attributes":{"POSITION":26,"NORMAL":27,"TEXCOORD_0":28},"indices":29,"material":0}]},{"name":"SPARTAN_gore_cap_upper_arm_r_body_mesh","primitives":[{"attributes":{"POSITION":30,"NORMAL":31,"TEXCOORD_0":32},"indices":33,"material":0}]},{"name":"SM_Belt_LP_M_Armor3_0","primitives":[{"attributes":{"POSITION":34,"NORMAL":35,"TEXCOORD_0":36,"TEXCOORD_1":37,"TEXCOORD_2":38,"JOINTS_0":39,"WEIGHTS_0":40},"indices":41,"material":1},{"attributes":{"POSITION":42,"NORMAL":43,"TEXCOORD_0":44,"TEXCOORD_1":45,"TEXCOORD_2":46,"JOINTS_0":47,"WEIGHTS_0":48},"indices":49,"material":2},{"attributes":{"POSITION":50,"NORMAL":51,"TEXCOORD_0":52,"TEXCOORD_1":53,"TEXCOORD_2":54,"JOINTS_0":55,"WEIGHTS_0":56},"indices":57,"material":3},{"attributes":{"POSITION":58,"NORMAL":59,"TEXCOORD_0":60,"TEXCOORD_1":61,"TEXCOORD_2":62,"JOINTS_0":63,"WEIGHTS_0":64},"indices":65,"material":4},{"attributes":{"POSITION":66,"NORMAL":67,"TEXCOORD_0":68,"TEXCOORD_1":69,"TEXCOORD_2":70,"JOINTS_0":71,"WEIGHTS_0":72},"indices":73,"material":5},{"attributes":{"POSITION":74,"NORMAL":75,"TEXCOORD_0":76,"TEXCOORD_1":77,"TEXCOORD_2":78,"JOINTS_0":79,"WEIGHTS_0":80},"indices":81,"material":6},{"attributes":{"POSITION":82,"NORMAL":83,"TEXCOORD_0":84,"TEXCOORD_1":85,"TEXCOORD_2":86,"JOINTS_0":87,"WEIGHTS_0":88},"indices":57,"material":7},{"attributes":{"POSITION":89,"NORMAL":90,"TEXCOORD_0":91,"TEXCOORD_1":92,"TEXCOORD_2":93,"JOINTS_0":94,"WEIGHTS_0":95},"indices":96,"material":8},{"attributes":{"POSITION":97,"NORMAL":98,"TEXCOORD_0":99,"TEXCOORD_1":100,"TEXCOORD_2":101,"JOINTS_0":102,"WEIGHTS_0":103},"indices":104,"material":9},{"attributes":{"POSITION":105,"NORMAL":106,"TEXCOORD_0":107,"TEXCOORD_1":108,"TEXCOORD_2":109,"JOINTS_0":110,"WEIGHTS_0":111},"indices":112,"material":10}]}],"textures":[{"sampler":0,"source":0},{"sampler":0,"source":1},{"sampler":0,"source":2},{"sampler":0,"source":3},{"sampler":0,"source":4},{"sampler":0,"source":5},{"sampler":0,"source":6},{"sampler":0,"source":7},{"sampler":0,"source":8},{"sampler":0,"source":9},{"sampler":0,"source":10},{"sampler":0,"source":11},{"sampler":0,"source":12},{"sampler":0,"source":13},{"sampler":0,"source":14},{"sampler":0,"source":15},{"sampler":0,"source":16},{"sampler":0,"source":17},{"sampler":0,"source":18},{"sampler":0,"source":19},{"sampler":0,"source":20},{"sampler":0,"source":12},{"sampler":0,"source":21},{"sampler":0,"source":14},{"sampler":0,"source":15},{"sampler":0,"source":16},{"sampler":0,"source":17}],"images":[{"mimeType":"image/png","name":"Image_11","uri":"textures/e2221fae993be353.png"},{"mimeType":"image/png","name":"Image_10","uri":"textures/28528b2d34cbdde5.png"},{"mimeType":"image/png","name":"Image_9","uri":"textures/cb11726b577df6e6.png"},{"mimeType":"image/png","name":"Image_2","uri":"textures/1eb8f8e2158d0b65.png"},{"mimeType":"image/png","name":"Image_0","uri":"textures/bf4beb7ce68bbb11.png"},{"mimeType":"image/png","name":"Image_1","uri":"textures/e17f386b96de5328.png"},{"mimeType":"image/png","name":"Image_5","uri":"textures/78389fd7b1c31fe6.png"},{"mimeType":"image/png","name":"Image_3","uri":"textures/218445191a589169.png"},{"mimeType":"image/png","name":"Image_4","uri":"textures/98b61641107f4a36.png"},{"mimeType":"image/png","name":"Image_8","uri":"textures/8fb40e2cf73b74c5.png"},{"mimeType":"image/png","name":"Image_6","uri":"textures/77eb3c0a7d774b2f.png"},{"mimeType":"image/png","name":"Image_7","uri":"textures/6e5e557937f5e11c.png"},{"mimeType":"image/png","name":"Image_14","uri":"textures/11b6d005e7d57465.png"},{"mimeType":"image/png","name":"Image_13","uri":"textures/054a33cec0b68c16.png"},{"mimeType":"image/png","name":"Image_12","uri":"textures/49c8b6628b741177.png"},{"mimeType":"image/png","name":"Image_17","uri":"textures/fd1bdabe143f63cb.png"},{"mimeType":"image/png","name":"Image_16","uri":"textures/b6ebd4b722772f42.png"},{"mimeType":"image/png","name":"Image_15","uri":"textures/40c42509ac8a08b0.png"},{"mimeType":"image/png","name":"Image_20","uri":"textures/cbcdaacc8b8af186.png"},{"mimeType":"image/png","name":"Image_18","uri":"textures/f9456946a1ffb94e.png"},{"mimeType":"image/png","name":"Image_19","uri":"textures/5be8be97968bc726.png"},{"mimeType":"image/png","name":"Image_21","uri":"textures/29a0b871f6256a96.png"}],"skins":[{"inverseBindMatrices":113,"joints":[31,30,21,20,19,10,9,14,13,12,11,18,17,16,15,25,24,23,22,29,28,27,26],"name":"SPARTAN_Skeleton"}],"accessors":[{"bufferView":0,"componentType":5126,"count":144,"max":[0.011411771178245544,0.13997919857501984,0.14011354744434357],"min":[-0.011411771178245544,-0.13997919857501984,-0.14011354744434357],"type":"VEC3"},{"bufferView":1,"componentType":5126,"count":144,"type":"VEC3"},{"bufferView":2,"componentType":5126,"count":144,"type":"VEC2"},{"bufferView":3,"componentType":5123,"count":276,"type":"SCALAR"},{"bufferView":4,"componentType":5126,"count":144,"max":[0.011411790736019611,0.13997921347618103,0.14011354744434357],"min":[-0.011411790736019611,-0.13997921347618103,-0.14011354744434357],"type":"VEC3"},{"bufferView":5,"componentType":5126,"count":144,"type":"VEC3"},{"bufferView":6,"componentType":5126,"count":144,"type":"VEC2"},{"bufferView":7,"componentType":5123,"count":276,"type":"SCALAR"},{"bufferView":8,"componentType":5126,"count":144,"max":[0.15000000596046448,0.01387273333966732,0.1502133309841156],"min":[-0.15000000596046448,-0.01387273333966732,-0.1502133309841156],"type":"VEC3"},{"bufferView":9,"componentType":5126,"count":144,"type":"VEC3"},{"bufferView":10,"componentType":5126,"count":144,"type":"VEC2"},{"bufferView":11,"componentType":5123,"count":276,"type":"SCALAR"},{"bufferView":12,"componentType":5126,"count":144,"max":[0.18000000715255737,0.023388531059026718,0.18014255166053772],"min":[-0.18000000715255737,-0.023388531059026718,-0.18014255166053772],"type":"VEC3"},{"bufferView":13,"componentType":5126,"count":144,"type":"VEC3"},{"bufferView":14,"componentType":5126,"count":144,"type":"VEC2"},{"bufferView":15,"componentType":5123,"count":276,"type":"SCALAR"},{"bufferView":16,"componentType":5126,"count":144,"max":[0.18000000715255737,0.023388531059026718,0.18014255166053772],"min":[-0.18000000715255737,-0.023388531059026718,-0.18014255166053772],"type":"VEC3"},{"bufferView":17,"componentType":5126,"count":144,"type":"VEC3"},{"bufferView":18,"componentType":5126,"count":144,"type":"VEC2"},{"bufferView":19,"componentType":5126,"count":150,"max":[0.20999999344348907,0.010468678548932076,0.2100578248500824],"min":[-0.20999999344348907,-0.010468678548932076,-0.2100578248500824],"type":"VEC3"},{"bufferView":20,"componentType":5126,"count":150,"type":"VEC3"},{"bufferView":21,"componentType":5126,"count":150,"type":"VEC2"},{"bufferView":22,"componentType":5123,"count":276,"type":"SCALAR"},{"bufferView":23,"componentType":5126,"count":150,"max":[0.20999999344348907,0.010468678548932076,0.2100578248500824],"min":[-0.20999999344348907,-0.010468678548932076,-0.2100578248500824],"type":"VEC3"},{"bufferView":24,"componentType":5126,"count":150,"type":"VEC3"},{"bufferView":25,"componentType":5126,"count":150,"type":"VEC2"},{"bufferView":26,"componentType":5126,"count":144,"max":[0.011738356202840805,0.1599765568971634,0.16010719537734985],"min":[-0.011738356202840805,-0.1599765568971634,-0.16010719537734985],"type":"VEC3"},{"bufferView":27,"componentType":5126,"count":144,"type":"VEC3"},{"bufferView":28,"componentType":5126,"count":144,"type":"VEC2"},{"bufferView":29,"componentType":5123,"count":276,"type":"SCALAR"},{"bufferView":30,"componentType":5126,"count":144,"max":[0.011738370172679424,0.1599765568971634,0.16010719537734985],"min":[-0.011738370172679424,-0.1599765568971634,-0.16010719537734985],"type":"VEC3"},{"bufferView":31,"componentType":5126,"count":144,"type":"VEC3"},{"bufferView":32,"componentType":5126,"count":144,"type":"VEC2"},{"bufferView":33,"componentType":5123,"count":276,"type":"SCALAR"},{"bufferView":34,"componentType":5126,"count":7595,"max":[0.8309858441352844,1.5461115837097168,0.16614781320095062],"min":[-0.8430505990982056,-0.003950847778469324,-0.27013224363327026],"type":"VEC3"},{"bufferView":35,"componentType":5126,"count":7595,"type":"VEC3"},{"bufferView":36,"componentType":5126,"count":7595,"type":"VEC2"},{"bufferView":37,"componentType":5126,"count":7595,"type":"VEC2"},{"bufferView":38,"componentType":5126,"count":7595,"type":"VEC2"},{"bufferView":39,"componentType":5121,"count":7595,"type":"VEC4"},{"bufferView":40,"componentType":5126,"count":7595,"type":"VEC4"},{"bufferView":41,"componentType":5123,"count":30558,"type":"SCALAR"},{"bufferView":42,"componentType":5126,"count":2644,"max":[0.22378137707710266,1.8154816627502441,0.08336032927036285],"min":[-0.24278326332569122,1.4288787841796875,-0.14926624298095703],"type":"VEC3"},{"bufferView":43,"componentType":5126,"count":2644,"type":"VEC3"},{"bufferView":44,"componentType":5126,"count":2644,"type":"VEC2"},{"bufferView":45,"componentType":5126,"count":2644,"type":"VEC2"},{"bufferView":46,"componentType":5126,"count":2644,"type":"VEC2"},{"bufferView":47,"componentType":5121,"count":2644,"type":"VEC4"},{"bufferView":48,"componentType":5126,"count":2644,"type":"VEC4"},{"bufferView":49,"componentType":5123,"count":14628,"type":"SCALAR"},{"bufferView":50,"componentType":5126,"count":244,"max":[0.047251686453819275,1.726548671722412,0.050130315124988556],"min":[-0.06382249295711517,1.6989479064941406,0.022423366084694862],"type":"VEC3"},{"bufferView":51,"componentType":5126,"count":244,"type":"VEC3"},{"bufferView":52,"componentType":5126,"count":244,"type":"VEC2"},{"bufferView":53,"componentType":5126,"count":244,"type":"VEC2"},{"bufferView":54,"componentType":5126,"count":244,"type":"VEC2"},{"bufferView":55,"componentType":5121,"count":244,"type":"VEC4"},{"bufferView":56,"componentType":5126,"count":244,"type":"VEC4"},{"bufferView":57,"componentType":5123,"count":1296,"type":"SCALAR"},{"bufferView":58,"componentType":5126,"count":8813,"max":[0.9937521815299988,1.5121879577636719,0.15565800666809082],"min":[-1.0050835609436035,-0.0003599555930122733,-0.16788451373577118],"type":"VEC3"},{"bufferView":59,"componentType":5126,"count":8813,"type":"VEC3"},{"bufferView":60,"componentType":5126,"count":8813,"type":"VEC2"},{"bufferView":61,"componentType":5126,"count":8813,"type":"VEC2"},{"bufferView":62,"componentType":5126,"count":8813,"type":"VEC2"},{"bufferView":63,"componentType":5121,"count":8813,"type":"VEC4"},{"bufferView":64,"componentType":5126,"count":8813,"type":"VEC4"},{"bufferView":65,"componentType":5123,"count":45588,"type":"SCALAR"},{"bufferView":66,"componentType":5126,"count":2246,"max":[0.2893792390823364,1.5790704488754272,0.14220505952835083],"min":[-0.24831055104732513,0.9949120879173279,-0.1770484298467636],"type":"VEC3"},{"bufferView":67,"componentType":5126,"count":2246,"type":"VEC3"},{"bufferView":68,"componentType":5126,"count":2246,"type":"VEC2"},{"bufferView":69,"componentType":5126,"count":2246,"type":"VEC2"},{"bufferView":70,"componentType":5126,"count":2246,"type":"VEC2"},{"bufferView":71,"componentType":5121,"count":2246,"type":"VEC4"},{"bufferView":72,"componentType":5126,"count":2246,"type":"VEC4"},{"bufferView":73,"componentType":5123,"count":11526,"type":"SCALAR"},{"bufferView":74,"componentType":5126,"count":5188,"max":[0.8529635071754456,1.5425108671188354,0.1541389524936676],"min":[-0.8651260733604431,0.09690767526626587,-0.1726282835006714],"type":"VEC3"},{"bufferView":75,"componentType":5126,"count":5188,"type":"VEC3"},{"bufferView":76,"componentType":5126,"count":5188,"type":"VEC2"},{"bufferView":77,"componentType":5126,"count":5188,"type":"VEC2"},{"bufferView":78,"componentType":5126,"count":5188,"type":"VEC2"},{"bufferView":79,"componentType":5121,"count":5188,"type":"VEC4"},{"bufferView":80,"componentType":5126,"count":5188,"type":"VEC4"},{"bufferView":81,"componentType":5123,"count":22665,"type":"SCALAR"},{"bufferView":82,"componentType":5126,"count":244,"max":[0.047251686453819275,1.726548671722412,0.050130315124988556],"min":[-0.06382249295711517,1.6989479064941406,0.022423366084694862],"type":"VEC3"},{"bufferView":83,"componentType":5126,"count":244,"type":"VEC3"},{"bufferView":84,"componentType":5126,"count":244,"type":"VEC2"},{"bufferView":85,"componentType":5126,"count":244,"type":"VEC2"},{"bufferView":86,"componentType":5126,"count":244,"type":"VEC2"},{"bufferView":87,"componentType":5121,"count":244,"type":"VEC4"},{"bufferView":88,"componentType":5126,"count":244,"type":"VEC4"},{"bufferView":89,"componentType":5126,"count":2030,"max":[0.011815443634986877,2.0204315185546875,0.15369094908237457],"min":[-0.028139997273683548,1.738006830215454,-0.2821056544780731],"type":"VEC3"},{"bufferView":90,"componentType":5126,"count":2030,"type":"VEC3"},{"bufferView":91,"componentType":5126,"count":2030,"type":"VEC2"},{"bufferView":92,"componentType":5126,"count":2030,"type":"VEC2"},{"bufferView":93,"componentType":5126,"count":2030,"type":"VEC2"},{"bufferView":94,"componentType":5121,"count":2030,"type":"VEC4"},{"bufferView":95,"componentType":5126,"count":2030,"type":"VEC4"},{"bufferView":96,"componentType":5123,"count":3042,"type":"SCALAR"},{"bufferView":97,"componentType":5126,"count":721,"max":[0.09866093099117279,1.83267343044281,0.0969514325261116],"min":[-0.11672640591859818,1.5394601821899414,-0.15340255200862885],"type":"VEC3"},{"bufferView":98,"componentType":5126,"count":721,"type":"VEC3"},{"bufferView":99,"componentType":5126,"count":721,"type":"VEC2"},{"bufferView":100,"componentType":5126,"count":721,"type":"VEC2"},{"bufferView":101,"componentType":5126,"count":721,"type":"VEC2"},{"bufferView":102,"componentType":5121,"count":721,"type":"VEC4"},{"bufferView":103,"componentType":5126,"count":721,"type":"VEC4"},{"bufferView":104,"componentType":5123,"count":3444,"type":"SCALAR"},{"bufferView":105,"componentType":5126,"count":659,"max":[0.0980960950255394,1.853900671005249,0.09547918289899826],"min":[-0.11664767563343048,1.5394601821899414,-0.17254610359668732],"type":"VEC3"},{"bufferView":106,"componentType":5126,"count":659,"type":"VEC3"},{"bufferView":107,"componentType":5126,"count":659,"type":"VEC2"},{"bufferView":108,"componentType":5126,"count":659,"type":"VEC2"},{"bufferView":109,"componentType":5126,"count":659,"type":"VEC2"},{"bufferView":110,"componentType":5121,"count":659,"type":"VEC4"},{"bufferView":111,"componentType":5126,"count":659,"type":"VEC4"},{"bufferView":112,"componentType":5123,"count":2880,"type":"SCALAR"},{"bufferView":113,"componentType":5126,"count":23,"type":"MAT4"}],"bufferViews":[{"buffer":0,"byteLength":1728,"byteOffset":0,"target":34962},{"buffer":0,"byteLength":1728,"byteOffset":1728,"target":34962},{"buffer":0,"byteLength":1152,"byteOffset":3456,"target":34962},{"buffer":0,"byteLength":552,"byteOffset":4608,"target":34963},{"buffer":0,"byteLength":1728,"byteOffset":5160,"target":34962},{"buffer":0,"byteLength":1728,"byteOffset":6888,"target":34962},{"buffer":0,"byteLength":1152,"byteOffset":8616,"target":34962},{"buffer":0,"byteLength":552,"byteOffset":9768,"target":34963},{"buffer":0,"byteLength":1728,"byteOffset":10320,"target":34962},{"buffer":0,"byteLength":1728,"byteOffset":12048,"target":34962},{"buffer":0,"byteLength":1152,"byteOffset":13776,"target":34962},{"buffer":0,"byteLength":552,"byteOffset":14928,"target":34963},{"buffer":0,"byteLength":1728,"byteOffset":15480,"target":34962},{"buffer":0,"byteLength":1728,"byteOffset":17208,"target":34962},{"buffer":0,"byteLength":1152,"byteOffset":18936,"target":34962},{"buffer":0,"byteLength":552,"byteOffset":20088,"target":34963},{"buffer":0,"byteLength":1728,"byteOffset":20640,"target":34962},{"buffer":0,"byteLength":1728,"byteOffset":22368,"target":34962},{"buffer":0,"byteLength":1152,"byteOffset":24096,"target":34962},{"buffer":0,"byteLength":1800,"byteOffset":25248,"target":34962},{"buffer":0,"byteLength":1800,"byteOffset":27048,"target":34962},{"buffer":0,"byteLength":1200,"byteOffset":28848,"target":34962},{"buffer":0,"byteLength":552,"byteOffset":30048,"target":34963},{"buffer":0,"byteLength":1800,"byteOffset":30600,"target":34962},{"buffer":0,"byteLength":1800,"byteOffset":32400,"target":34962},{"buffer":0,"byteLength":1200,"byteOffset":34200,"target":34962},{"buffer":0,"byteLength":1728,"byteOffset":35400,"target":34962},{"buffer":0,"byteLength":1728,"byteOffset":37128,"target":34962},{"buffer":0,"byteLength":1152,"byteOffset":38856,"target":34962},{"buffer":0,"byteLength":552,"byteOffset":40008,"target":34963},{"buffer":0,"byteLength":1728,"byteOffset":40560,"target":34962},{"buffer":0,"byteLength":1728,"byteOffset":42288,"target":34962},{"buffer":0,"byteLength":1152,"byteOffset":44016,"target":34962},{"buffer":0,"byteLength":552,"byteOffset":45168,"target":34963},{"buffer":0,"byteLength":91140,"byteOffset":45720,"target":34962},{"buffer":0,"byteLength":91140,"byteOffset":136860,"target":34962},{"buffer":0,"byteLength":60760,"byteOffset":228000,"target":34962},{"buffer":0,"byteLength":60760,"byteOffset":288760,"target":34962},{"buffer":0,"byteLength":60760,"byteOffset":349520,"target":34962},{"buffer":0,"byteLength":30380,"byteOffset":410280,"target":34962},{"buffer":0,"byteLength":121520,"byteOffset":440660,"target":34962},{"buffer":0,"byteLength":61116,"byteOffset":562180,"target":34963},{"buffer":0,"byteLength":31728,"byteOffset":623296,"target":34962},{"buffer":0,"byteLength":31728,"byteOffset":655024,"target":34962},{"buffer":0,"byteLength":21152,"byteOffset":686752,"target":34962},{"buffer":0,"byteLength":21152,"byteOffset":707904,"target":34962},{"buffer":0,"byteLength":21152,"byteOffset":729056,"target":34962},{"buffer":0,"byteLength":10576,"byteOffset":750208,"target":34962},{"buffer":0,"byteLength":42304,"byteOffset":760784,"target":34962},{"buffer":0,"byteLength":29256,"byteOffset":803088,"target":34963},{"buffer":0,"byteLength":2928,"byteOffset":832344,"target":34962},{"buffer":0,"byteLength":2928,"byteOffset":835272,"target":34962},{"buffer":0,"byteLength":1952,"byteOffset":838200,"target":34962},{"buffer":0,"byteLength":1952,"byteOffset":840152,"target":34962},{"buffer":0,"byteLength":1952,"byteOffset":842104,"target":34962},{"buffer":0,"byteLength":976,"byteOffset":844056,"target":34962},{"buffer":0,"byteLength":3904,"byteOffset":845032,"target":34962},{"buffer":0,"byteLength":2592,"byteOffset":848936,"target":34963},{"buffer":0,"byteLength":105756,"byteOffset":851528,"target":34962},{"buffer":0,"byteLength":105756,"byteOffset":957284,"target":34962},{"buffer":0,"byteLength":70504,"byteOffset":1063040,"target":34962},{"buffer":0,"byteLength":70504,"byteOffset":1133544,"target":34962},{"buffer":0,"byteLength":70504,"byteOffset":1204048,"target":34962},{"buffer":0,"byteLength":35252,"byteOffset":1274552,"target":34962},{"buffer":0,"byteLength":141008,"byteOffset":1309804,"target":34962},{"buffer":0,"byteLength":91176,"byteOffset":1450812,"target":34963},{"buffer":0,"byteLength":26952,"byteOffset":1541988,"target":34962},{"buffer":0,"byteLength":26952,"byteOffset":1568940,"target":34962},{"buffer":0,"byteLength":17968,"byteOffset":1595892,"target":34962},{"buffer":0,"byteLength":17968,"byteOffset":1613860,"target":34962},{"buffer":0,"byteLength":17968,"byteOffset":1631828,"target":34962},{"buffer":0,"byteLength":8984,"byteOffset":1649796,"target":34962},{"buffer":0,"byteLength":35936,"byteOffset":1658780,"target":34962},{"buffer":0,"byteLength":23052,"byteOffset":1694716,"target":34963},{"buffer":0,"byteLength":62256,"byteOffset":1717768,"target":34962},{"buffer":0,"byteLength":62256,"byteOffset":1780024,"target":34962},{"buffer":0,"byteLength":41504,"byteOffset":1842280,"target":34962},{"buffer":0,"byteLength":41504,"byteOffset":1883784,"target":34962},{"buffer":0,"byteLength":41504,"byteOffset":1925288,"target":34962},{"buffer":0,"byteLength":20752,"byteOffset":1966792,"target":34962},{"buffer":0,"byteLength":83008,"byteOffset":1987544,"target":34962},{"buffer":0,"byteLength":45330,"byteOffset":2070552,"target":34963},{"buffer":0,"byteLength":2928,"byteOffset":2115884,"target":34962},{"buffer":0,"byteLength":2928,"byteOffset":2118812,"target":34962},{"buffer":0,"byteLength":1952,"byteOffset":2121740,"target":34962},{"buffer":0,"byteLength":1952,"byteOffset":2123692,"target":34962},{"buffer":0,"byteLength":1952,"byteOffset":2125644,"target":34962},{"buffer":0,"byteLength":976,"byteOffset":2127596,"target":34962},{"buffer":0,"byteLength":3904,"byteOffset":2128572,"target":34962},{"buffer":0,"byteLength":24360,"byteOffset":2132476,"target":34962},{"buffer":0,"byteLength":24360,"byteOffset":2156836,"target":34962},{"buffer":0,"byteLength":16240,"byteOffset":2181196,"target":34962},{"buffer":0,"byteLength":16240,"byteOffset":2197436,"target":34962},{"buffer":0,"byteLength":16240,"byteOffset":2213676,"target":34962},{"buffer":0,"byteLength":8120,"byteOffset":2229916,"target":34962},{"buffer":0,"byteLength":32480,"byteOffset":2238036,"target":34962},{"buffer":0,"byteLength":6084,"byteOffset":2270516,"target":34963},{"buffer":0,"byteLength":8652,"byteOffset":2276600,"target":34962},{"buffer":0,"byteLength":8652,"byteOffset":2285252,"target":34962},{"buffer":0,"byteLength":5768,"byteOffset":2293904,"target":34962},{"buffer":0,"byteLength":5768,"byteOffset":2299672,"target":34962},{"buffer":0,"byteLength":5768,"byteOffset":2305440,"target":34962},{"buffer":0,"byteLength":2884,"byteOffset":2311208,"target":34962},{"buffer":0,"byteLength":11536,"byteOffset":2314092,"target":34962},{"buffer":0,"byteLength":6888,"byteOffset":2325628,"target":34963},{"buffer":0,"byteLength":7908,"byteOffset":2332516,"target":34962},{"buffer":0,"byteLength":7908,"byteOffset":2340424,"target":34962},{"buffer":0,"byteLength":5272,"byteOffset":2348332,"target":34962},{"buffer":0,"byteLength":5272,"byteOffset":2353604,"target":34962},{"buffer":0,"byteLength":5272,"byteOffset":2358876,"target":34962},{"buffer":0,"byteLength":2636,"byteOffset":2364148,"target":34962},{"buffer":0,"byteLength":10544,"byteOffset":2366784,"target":34962},{"buffer":0,"byteLength":5760,"byteOffset":2377328,"target":34963},{"buffer":0,"byteLength":1472,"byteOffset":2383088}],"samplers":[{"magFilter":9729,"minFilter":9987}],"buffers":[{"byteLength":2384560,"uri":"hoplite_body_v2.bin"}]}