{
	"asset":{
		"generator":"Khronos glTF Blender I/O v5.2.39",
		"version":"2.0"
	},
	"scene":0,
	"scenes":[
		{
			"extras":{
				"spartan_manual_manifest":"C:\\Users\\suean\\AppData\\Local\\Temp\\3dgenstudio-meshtools\\spartan-manual\\b9df52c9d772458e9decc94725744f7f\\session.json",
				"spartan_manual_status":"Saving a recovery checkpoint\u2026",
				"spartan_manual_alignment":"{\"height_scale\":0.955616,\"arm_span_scale\":1.19452,\"target_height\":1.828716,\"reference_height\":1.828716,\"aspect_error\":0.374993,\"extremity_fit\":{\"enabled\":true,\"coordinate_space\":\"blender_z_up\",\"adjusted\":2,\"landmarks\":[{\"landmark\":\"wrist_l\",\"adjusted\":false,\"reason\":\"insufficient surface samples\",\"samples\":0},{\"landmark\":\"wrist_r\",\"adjusted\":false,\"reason\":\"insufficient surface samples\",\"samples\":0},{\"landmark\":\"ankle_l\",\"adjusted\":true,\"samples\":470,\"samples_after\":470,\"before_error\":0.093591,\"after_error\":0.000106,\"shift\":[-0.074718,0.05636,0.0],\"clamped\":false},{\"landmark\":\"ankle_r\",\"adjusted\":true,\"samples\":471,\"samples_after\":471,\"before_error\":0.0936,\"after_error\":0.0001,\"shift\":[0.074726,0.056364,0.0],\"clamped\":false}],\"max_residual\":0.000106}}",
				"spartan_manual_extremity_fit":"{\"enabled\":true,\"coordinate_space\":\"blender_z_up\",\"adjusted\":2,\"landmarks\":[{\"landmark\":\"wrist_l\",\"adjusted\":false,\"reason\":\"insufficient surface samples\",\"samples\":0},{\"landmark\":\"wrist_r\",\"adjusted\":false,\"reason\":\"insufficient surface samples\",\"samples\":0},{\"landmark\":\"ankle_l\",\"adjusted\":true,\"samples\":470,\"samples_after\":470,\"before_error\":0.093591,\"after_error\":0.000106,\"shift\":[-0.074718,0.05636,0.0],\"clamped\":false},{\"landmark\":\"ankle_r\",\"adjusted\":true,\"samples\":471,\"samples_after\":471,\"before_error\":0.0936,\"after_error\":0.0001,\"shift\":[0.074726,0.056364,0.0],\"clamped\":false}],\"max_residual\":0.000106}",
				"spartan_manual_extremities":"{\"enabled\":true,\"collapsed_bones\":32,\"moved_vertices\":1943,\"moved_assignments\":1943,\"moved_weight\":616.099853}",
				"spartan_manual_material_fixes":"{\"examined\":10,\"normal_rewired\":0,\"overmetallic_removed\":0,\"preserved\":10}",
				"spartan_manual_action":"Driving_Loop",
				"spartan_manual_preview_visible":0,
				"spartan_manual_rigid_bone":2
			},
			"name":"Scene",
			"nodes":[
				34
			]
		}
	],
	"nodes":[
		{
			"mesh":0,
			"name":"SPARTAN_gore_cap_forearm_l_body",
			"scale":[
				0,
				0,
				0
			],
			"translation":[
				0.46629995107650757,
				1.4408009052276611,
				-0.07010011374950409
			]
		},
		{
			"mesh":1,
			"name":"SPARTAN_gore_cap_forearm_r_body",
			"scale":[
				0,
				0,
				0
			],
			"translation":[
				-0.46629995107650757,
				1.4408005475997925,
				-0.07010023295879364
			]
		},
		{
			"mesh":2,
			"name":"SPARTAN_gore_cap_head_body",
			"scale":[
				0,
				0,
				0
			],
			"translation":[
				0,
				1.5686997175216675,
				0.005099689122289419
			]
		},
		{
			"mesh":3,
			"name":"SPARTAN_gore_cap_shin_l_body",
			"scale":[
				0,
				0,
				0
			],
			"translation":[
				0.08899999409914017,
				0.5318002700805664,
				-0.0014001879608258605
			]
		},
		{
			"mesh":4,
			"name":"SPARTAN_gore_cap_shin_r_body",
			"scale":[
				0,
				0,
				0
			],
			"translation":[
				-0.08900000154972076,
				0.5318001508712769,
				-0.0014001877279952168
			]
		},
		{
			"mesh":5,
			"name":"SPARTAN_gore_cap_thigh_l_body",
			"scale":[
				0,
				0,
				0
			],
			"translation":[
				0.08899997174739838,
				0.9320998787879944,
				0.0013998787617310882
			]
		},
		{
			"mesh":6,
			"name":"SPARTAN_gore_cap_thigh_r_body",
			"scale":[
				0,
				0,
				0
			],
			"translation":[
				-0.08899997919797897,
				0.9320998787879944,
				0.0013998794602230191
			]
		},
		{
			"mesh":7,
			"name":"SPARTAN_gore_cap_upper_arm_l_body",
			"scale":[
				0,
				0,
				0
			],
			"translation":[
				0.1918998807668686,
				1.440800666809082,
				-0.06540019065141678
			]
		},
		{
			"mesh":8,
			"name":"SPARTAN_gore_cap_upper_arm_r_body",
			"scale":[
				0,
				0,
				0
			],
			"translation":[
				-0.19189992547035217,
				1.4408005475997925,
				-0.06540025770664215
			]
		},
		{
			"name":"DEF-head",
			"rotation":[
				-0.07867422699928284,
				-1.8001937718281624e-08,
				-1.7519004913424396e-08,
				0.9969003796577454
			],
			"scale":[
				1,
				1.0000001192092896,
				1
			],
			"translation":[
				-9.072159087061393e-15,
				0.0825861245393753,
				3.67872416973114e-08
			]
		},
		{
			"children":[
				9
			],
			"name":"DEF-neck",
			"rotation":[
				0.11098597198724747,
				-2.9320512240360586e-08,
				2.9992676786605443e-08,
				0.9938219785690308
			],
			"scale":[
				1,
				0.9999999403953552,
				0.9999999403953552
			],
			"translation":[
				-3.652206168784991e-15,
				0.17289113998413086,
				9.313225746154785e-10
			]
		},
		{
			"name":"DEF-hand.L",
			"rotation":[
				-0.008619540371000767,
				-5.006240826332942e-07,
				-4.2889863038908516e-07,
				0.9999628663063049
			],
			"translation":[
				6.438238528971851e-07,
				0.27264079451560974,
				2.636835461089504e-08
			]
		},
		{
			"children":[
				11
			],
			"name":"DEF-forearm.L",
			"rotation":[
				0.017182262614369392,
				-2.051657429547049e-05,
				7.750987265353615e-07,
				0.9998524188995361
			],
			"scale":[
				1,
				0.9999999403953552,
				1
			],
			"translation":[
				1.7588246237210114e-07,
				0.2744405269622803,
				-9.786162991076708e-10
			]
		},
		{
			"children":[
				12
			],
			"name":"DEF-upper_arm.L",
			"rotation":[
				0.18026942014694214,
				0.6838500499725342,
				-0.17983654141426086,
				0.6837477087974548
			],
			"scale":[
				1,
				1,
				0.9999999403953552
			],
			"translation":[
				-0.030072331428527832,
				0.21858158707618713,
				-0.016967004165053368
			]
		},
		{
			"children":[
				13
			],
			"name":"DEF-shoulder.L",
			"rotation":[
				-0.6040205359458923,
				-0.34510329365730286,
				-0.3567177951335907,
				0.6235505938529968
			],
			"scale":[
				0.9999999403953552,
				1,
				1
			],
			"translation":[
				0.018799930810928345,
				0.14055393636226654,
				0.08089500665664673
			]
		},
		{
			"name":"DEF-hand.R",
			"rotation":[
				-0.00861969031393528,
				4.7681157866463764e-07,
				-8.8712184265205e-09,
				0.9999628663063049
			],
			"scale":[
				1,
				0.9999999403953552,
				1
			],
			"translation":[
				-1.9526424921423313e-07,
				0.27264049649238586,
				-5.297806637827307e-11
			]
		},
		{
			"children":[
				15
			],
			"name":"DEF-forearm.R",
			"rotation":[
				0.017182381823658943,
				2.0505227439571172e-05,
				-3.5569760825637786e-07,
				0.9998524188995361
			],
			"translation":[
				-2.360794155720214e-07,
				0.2744404673576355,
				-6.016125553287566e-08
			]
		},
		{
			"children":[
				16
			],
			"name":"DEF-upper_arm.R",
			"rotation":[
				0.18026971817016602,
				-0.6838499903678894,
				0.17983658611774445,
				0.6837477087974548
			],
			"scale":[
				1,
				0.9999998211860657,
				0.9999999403953552
			],
			"translation":[
				0.030072275549173355,
				0.21858170628547668,
				-0.01696784794330597
			]
		},
		{
			"children":[
				17
			],
			"name":"DEF-shoulder.R",
			"rotation":[
				-0.6040207147598267,
				0.3451029360294342,
				0.35671746730804443,
				0.6235507726669312
			],
			"scale":[
				0.9999998807907104,
				0.9999998807907104,
				0.9999999403953552
			],
			"translation":[
				-0.018799984827637672,
				0.1405542939901352,
				0.08089501410722733
			]
		},
		{
			"children":[
				10,
				14,
				18
			],
			"name":"DEF-spine.003",
			"rotation":[
				-0.0002685766667127609,
				6.816858189040431e-08,
				-6.2189947636071e-11,
				1
			],
			"translation":[
				-2.0055961421792598e-15,
				0.14127163589000702,
				4.656612873077393e-10
			]
		},
		{
			"children":[
				19
			],
			"name":"DEF-spine.002",
			"rotation":[
				-0.07727991044521332,
				1.711511599111759e-09,
				-1.2495199541717739e-08,
				0.9970094561576843
			],
			"scale":[
				1,
				0.9999998807907104,
				0.9999999403953552
			],
			"translation":[
				-3.550721457308559e-15,
				0.12403436005115509,
				-1.155422069132328e-08
			]
		},
		{
			"children":[
				20
			],
			"name":"DEF-spine.001",
			"rotation":[
				-0.06470275670289993,
				-1.0988320298110921e-07,
				-1.747521594097634e-08,
				0.9979045987129211
			],
			"translation":[
				2.5462811587407923e-14,
				0.1381765604019165,
				-8.66129994392395e-08
			]
		},
		{
			"name":"DEF-toe.L",
			"rotation":[
				0.0001369716483168304,
				-0.9643062353134155,
				0.26478904485702515,
				0.0005000089295208454
			],
			"scale":[
				1,
				1.0000001192092896,
				0.9999998211860657
			],
			"translation":[
				4.007233656011522e-09,
				0.17329975962638855,
				-5.719630280509591e-08
			]
		},
		{
			"children":[
				22
			],
			"name":"DEF-foot.L",
			"rotation":[
				-0.5290706753730774,
				-0.00032809472759254277,
				0.0003434525278862566,
				0.8485776782035828
			],
			"scale":[
				1,
				0.9999999403953552,
				0.9999999403953552
			],
			"translation":[
				7.686821845709346e-09,
				0.42947956919670105,
				-2.1591404220089316e-09
			]
		},
		{
			"children":[
				23
			],
			"name":"DEF-shin.L",
			"rotation":[
				0.03658563271164894,
				-0.00013134704204276204,
				-4.7776020437595434e-06,
				0.9993305206298828
			],
			"scale":[
				0.9999999403953552,
				1,
				0.9999999403953552
			],
			"translation":[
				1.0174253439743097e-08,
				0.40030959248542786,
				-8.508536097906472e-10
			]
		},
		{
			"children":[
				24
			],
			"name":"DEF-thigh.L",
			"rotation":[
				0.9924845099449158,
				1.628162671352129e-08,
				3.601958837862185e-07,
				0.12237028777599335
			],
			"scale":[
				1,
				1,
				1.0000025033950806
			],
			"translation":[
				0.08899994194507599,
				0.027770815417170525,
				0.04602380841970444
			]
		},
		{
			"name":"DEF-toe.R",
			"rotation":[
				0.00013694110384676605,
				-0.9643058180809021,
				0.26479047536849976,
				0.0005001235986128449
			],
			"scale":[
				1,
				0.9999995827674866,
				1
			],
			"translation":[
				1.9047547539230436e-08,
				0.1732988953590393,
				-6.753543857485056e-08
			]
		},
		{
			"children":[
				26
			],
			"name":"DEF-foot.R",
			"rotation":[
				-0.5290697813034058,
				-0.00032809513504616916,
				0.00034345220774412155,
				0.8485782146453857
			],
			"scale":[
				1,
				1,
				0.9999999403953552
			],
			"translation":[
				3.0150658858474344e-08,
				0.4294792115688324,
				-7.135895430110395e-09
			]
		},
		{
			"children":[
				27
			],
			"name":"DEF-shin.R",
			"rotation":[
				0.03658543899655342,
				-0.00013131476589478552,
				-4.778764377988409e-06,
				0.9993305206298828
			],
			"scale":[
				0.9999999403953552,
				1,
				1
			],
			"translation":[
				-5.6549783522541475e-08,
				0.40030965209007263,
				-2.5580959572835127e-10
			]
		},
		{
			"children":[
				28
			],
			"name":"DEF-thigh.R",
			"rotation":[
				0.9924845695495605,
				1.2320395370579718e-08,
				3.2806917715788586e-07,
				0.12236987054347992
			],
			"scale":[
				1,
				1.0000001192092896,
				1.0000035762786865
			],
			"translation":[
				-0.08900002390146255,
				0.027770817279815674,
				0.046023741364479065
			]
		},
		{
			"children":[
				21,
				25,
				29
			],
			"name":"DEF-hips",
			"rotation":[
				0.1258409470319748,
				1.5062366287565965e-07,
				2.8738048385434922e-08,
				0.9920504093170166
			],
			"scale":[
				1,
				0.9999999403953552,
				1
			],
			"translation":[
				3.83453446772819e-09,
				0.9166995882987976,
				-0.05010005459189415
			]
		},
		{
			"children":[
				30
			],
			"name":"root",
			"rotation":[
				-8.557136332854043e-09,
				3.8268684221520743e-08,
				-6.54940697893602e-16,
				1
			]
		},
		{
			"extras":{
				"spartan_atlas_schema":1,
				"spartan_atlas_resolution":4096,
				"spartan_atlas_digest":"06a5d40d7070bd24:7f13e33ca7dd4055:d7a2210eaf460d74"
			},
			"mesh":9,
			"name":"SPARTAN_character_body",
			"skin":0
		},
		{
			"children":[
				32,
				31
			],
			"name":"SPARTAN_Skeleton"
		},
		{
			"children":[
				0,
				1,
				2,
				3,
				4,
				5,
				6,
				7,
				8,
				33
			],
			"name":"SPARTAN_BODY_ROOT"
		}
	],
	"materials":[
		{
			"doubleSided":true,
			"name":"SPARTAN_Flesh",
			"pbrMetallicRoughness":{
				"baseColorFactor":[
					0.3199999928474426,
					0.006000000052154064,
					0.012000000104308128,
					1
				],
				"metallicFactor":0,
				"roughnessFactor":0.6800000071525574
			}
		},
		{
			"doubleSided":true,
			"extras":{
				"spartan_atlas":true,
				"spartan_surface_class":"opaque"
			},
			"name":"HopliteBodyAtlas_Opaque",
			"normalTexture":{
				"index":0,
				"texCoord":1
			},
			"pbrMetallicRoughness":{
				"baseColorTexture":{
					"index":1,
					"texCoord":1
				},
				"metallicRoughnessTexture":{
					"index":2,
					"texCoord":1
				}
			}
		},
		{
			"alphaMode":"MASK",
			"doubleSided":true,
			"extras":{
				"spartan_atlas":true,
				"spartan_surface_class":"cutout"
			},
			"name":"HopliteBodyAtlas_Cutout",
			"normalTexture":{
				"index":3,
				"texCoord":1
			},
			"pbrMetallicRoughness":{
				"baseColorTexture":{
					"index":4,
					"texCoord":1
				},
				"metallicRoughnessTexture":{
					"index":5,
					"texCoord":1
				}
			}
		}
	],
	"meshes":[
		{
			"name":"SPARTAN_gore_cap_forearm_l_body_mesh",
			"primitives":[
				{
					"attributes":{
						"POSITION":0,
						"NORMAL":1,
						"TEXCOORD_0":2
					},
					"indices":3,
					"material":0
				}
			]
		},
		{
			"name":"SPARTAN_gore_cap_forearm_r_body_mesh",
			"primitives":[
				{
					"attributes":{
						"POSITION":4,
						"NORMAL":5,
						"TEXCOORD_0":6
					},
					"indices":7,
					"material":0
				}
			]
		},
		{
			"name":"SPARTAN_gore_cap_head_body_mesh",
			"primitives":[
				{
					"attributes":{
						"POSITION":8,
						"NORMAL":9,
						"TEXCOORD_0":10
					},
					"indices":11,
					"material":0
				}
			]
		},
		{
			"name":"SPARTAN_gore_cap_shin_l_body_mesh",
			"primitives":[
				{
					"attributes":{
						"POSITION":12,
						"NORMAL":13,
						"TEXCOORD_0":14
					},
					"indices":15,
					"material":0
				}
			]
		},
		{
			"name":"SPARTAN_gore_cap_shin_r_body_mesh",
			"primitives":[
				{
					"attributes":{
						"POSITION":16,
						"NORMAL":17,
						"TEXCOORD_0":18
					},
					"indices":15,
					"material":0
				}
			]
		},
		{
			"name":"SPARTAN_gore_cap_thigh_l_body_mesh",
			"primitives":[
				{
					"attributes":{
						"POSITION":19,
						"NORMAL":20,
						"TEXCOORD_0":21
					},
					"indices":22,
					"material":0
				}
			]
		},
		{
			"name":"SPARTAN_gore_cap_thigh_r_body_mesh",
			"primitives":[
				{
					"attributes":{
						"POSITION":23,
						"NORMAL":24,
						"TEXCOORD_0":25
					},
					"indices":22,
					"material":0
				}
			]
		},
		{
			"name":"SPARTAN_gore_cap_upper_arm_l_body_mesh",
			"primitives":[
				{
					"attributes":{
						"POSITION":26,
						"NORMAL":27,
						"TEXCOORD_0":28
					},
					"indices":29,
					"material":0
				}
			]
		},
		{
			"name":"SPARTAN_gore_cap_upper_arm_r_body_mesh",
			"primitives":[
				{
					"attributes":{
						"POSITION":30,
						"NORMAL":31,
						"TEXCOORD_0":32
					},
					"indices":33,
					"material":0
				}
			]
		},
		{
			"name":"SM_Belt_LP_M_Armor3_0",
			"primitives":[
				{
					"attributes":{
						"POSITION":34,
						"NORMAL":35,
						"TEXCOORD_0":36,
						"TEXCOORD_1":37,
						"TEXCOORD_2":38,
						"JOINTS_0":39,
						"WEIGHTS_0":40
					},
					"indices":41,
					"material":1
				},
				{
					"attributes":{
						"POSITION":42,
						"NORMAL":43,
						"TEXCOORD_0":44,
						"TEXCOORD_1":45,
						"TEXCOORD_2":46,
						"JOINTS_0":47,
						"WEIGHTS_0":48
					},
					"indices":49,
					"material":2
				}
			]
		}
	],
	"textures":[
		{
			"sampler":0,
			"source":0
		},
		{
			"sampler":0,
			"source":1
		},
		{
			"sampler":0,
			"source":2
		},
		{
			"sampler":0,
			"source":0
		},
		{
			"sampler":0,
			"source":1
		},
		{
			"sampler":0,
			"source":2
		}
	],
	"images":[
		{
			"mimeType":"image/png",
			"name":"HopliteAtlas_Normal",
			"uri":"../textures/hoplite_body_atlas_normal.png"
		},
		{
			"mimeType":"image/png",
			"name":"HopliteAtlas_BaseColor",
			"uri":"../textures/hoplite_body_atlas_basecolor.png"
		},
		{
			"mimeType":"image/png",
			"name":"HopliteAtlas_MetallicRoughness",
			"uri":"../textures/hoplite_body_atlas_metallic_roughness.png"
		}
	],
	"skins":[
		{
			"inverseBindMatrices":50,
			"joints":[
				31,
				30,
				21,
				20,
				19,
				10,
				9,
				14,
				13,
				12,
				11,
				18,
				17,
				16,
				15,
				25,
				24,
				23,
				22,
				29,
				28,
				27,
				26
			],
			"name":"SPARTAN_Skeleton"
		}
	],
	"accessors":[
		{
			"bufferView":0,
			"componentType":5126,
			"count":144,
			"max":[
				0.011411771178245544,
				0.13997919857501984,
				0.14011354744434357
			],
			"min":[
				-0.011411771178245544,
				-0.13997919857501984,
				-0.14011354744434357
			],
			"type":"VEC3"
		},
		{
			"bufferView":1,
			"componentType":5126,
			"count":144,
			"type":"VEC3"
		},
		{
			"bufferView":2,
			"componentType":5126,
			"count":144,
			"type":"VEC2"
		},
		{
			"bufferView":3,
			"componentType":5123,
			"count":276,
			"type":"SCALAR"
		},
		{
			"bufferView":4,
			"componentType":5126,
			"count":144,
			"max":[
				0.011411790736019611,
				0.13997921347618103,
				0.14011354744434357
			],
			"min":[
				-0.011411790736019611,
				-0.13997921347618103,
				-0.14011354744434357
			],
			"type":"VEC3"
		},
		{
			"bufferView":5,
			"componentType":5126,
			"count":144,
			"type":"VEC3"
		},
		{
			"bufferView":6,
			"componentType":5126,
			"count":144,
			"type":"VEC2"
		},
		{
			"bufferView":7,
			"componentType":5123,
			"count":276,
			"type":"SCALAR"
		},
		{
			"bufferView":8,
			"componentType":5126,
			"count":144,
			"max":[
				0.15000000596046448,
				0.01387273333966732,
				0.1502133309841156
			],
			"min":[
				-0.15000000596046448,
				-0.01387273333966732,
				-0.1502133309841156
			],
			"type":"VEC3"
		},
		{
			"bufferView":9,
			"componentType":5126,
			"count":144,
			"type":"VEC3"
		},
		{
			"bufferView":10,
			"componentType":5126,
			"count":144,
			"type":"VEC2"
		},
		{
			"bufferView":11,
			"componentType":5123,
			"count":276,
			"type":"SCALAR"
		},
		{
			"bufferView":12,
			"componentType":5126,
			"count":144,
			"max":[
				0.18000000715255737,
				0.023388531059026718,
				0.18014255166053772
			],
			"min":[
				-0.18000000715255737,
				-0.023388531059026718,
				-0.18014255166053772
			],
			"type":"VEC3"
		},
		{
			"bufferView":13,
			"componentType":5126,
			"count":144,
			"type":"VEC3"
		},
		{
			"bufferView":14,
			"componentType":5126,
			"count":144,
			"type":"VEC2"
		},
		{
			"bufferView":15,
			"componentType":5123,
			"count":276,
			"type":"SCALAR"
		},
		{
			"bufferView":16,
			"componentType":5126,
			"count":144,
			"max":[
				0.18000000715255737,
				0.023388531059026718,
				0.18014255166053772
			],
			"min":[
				-0.18000000715255737,
				-0.023388531059026718,
				-0.18014255166053772
			],
			"type":"VEC3"
		},
		{
			"bufferView":17,
			"componentType":5126,
			"count":144,
			"type":"VEC3"
		},
		{
			"bufferView":18,
			"componentType":5126,
			"count":144,
			"type":"VEC2"
		},
		{
			"bufferView":19,
			"componentType":5126,
			"count":150,
			"max":[
				0.20999999344348907,
				0.010468678548932076,
				0.2100578248500824
			],
			"min":[
				-0.20999999344348907,
				-0.010468678548932076,
				-0.2100578248500824
			],
			"type":"VEC3"
		},
		{
			"bufferView":20,
			"componentType":5126,
			"count":150,
			"type":"VEC3"
		},
		{
			"bufferView":21,
			"componentType":5126,
			"count":150,
			"type":"VEC2"
		},
		{
			"bufferView":22,
			"componentType":5123,
			"count":276,
			"type":"SCALAR"
		},
		{
			"bufferView":23,
			"componentType":5126,
			"count":150,
			"max":[
				0.20999999344348907,
				0.010468678548932076,
				0.2100578248500824
			],
			"min":[
				-0.20999999344348907,
				-0.010468678548932076,
				-0.2100578248500824
			],
			"type":"VEC3"
		},
		{
			"bufferView":24,
			"componentType":5126,
			"count":150,
			"type":"VEC3"
		},
		{
			"bufferView":25,
			"componentType":5126,
			"count":150,
			"type":"VEC2"
		},
		{
			"bufferView":26,
			"componentType":5126,
			"count":144,
			"max":[
				0.011738356202840805,
				0.1599765568971634,
				0.16010719537734985
			],
			"min":[
				-0.011738356202840805,
				-0.1599765568971634,
				-0.16010719537734985
			],
			"type":"VEC3"
		},
		{
			"bufferView":27,
			"componentType":5126,
			"count":144,
			"type":"VEC3"
		},
		{
			"bufferView":28,
			"componentType":5126,
			"count":144,
			"type":"VEC2"
		},
		{
			"bufferView":29,
			"componentType":5123,
			"count":276,
			"type":"SCALAR"
		},
		{
			"bufferView":30,
			"componentType":5126,
			"count":144,
			"max":[
				0.011738370172679424,
				0.1599765568971634,
				0.16010719537734985
			],
			"min":[
				-0.011738370172679424,
				-0.1599765568971634,
				-0.16010719537734985
			],
			"type":"VEC3"
		},
		{
			"bufferView":31,
			"componentType":5126,
			"count":144,
			"type":"VEC3"
		},
		{
			"bufferView":32,
			"componentType":5126,
			"count":144,
			"type":"VEC2"
		},
		{
			"bufferView":33,
			"componentType":5123,
			"count":276,
			"type":"SCALAR"
		},
		{
			"bufferView":34,
			"componentType":5126,
			"count":15814,
			"max":[
				0.9940862655639648,
				1.8538181781768799,
				0.16614782810211182
			],
			"min":[
				-1.0054137706756592,
				-0.003950995393097401,
				-0.27004581689834595
			],
			"type":"VEC3"
		},
		{
			"bufferView":35,
			"componentType":5126,
			"count":15814,
			"type":"VEC3"
		},
		{
			"bufferView":36,
			"componentType":5126,
			"count":15814,
			"type":"VEC2"
		},
		{
			"bufferView":37,
			"componentType":5126,
			"count":15814,
			"type":"VEC2"
		},
		{
			"bufferView":38,
			"componentType":5126,
			"count":15814,
			"type":"VEC2"
		},
		{
			"bufferView":39,
			"componentType":5121,
			"count":15814,
			"type":"VEC4"
		},
		{
			"bufferView":40,
			"componentType":5126,
			"count":15814,
			"type":"VEC4"
		},
		{
			"bufferView":41,
			"componentType":5123,
			"count":64908,
			"type":"SCALAR"
		},
		{
			"bufferView":42,
			"componentType":5126,
			"count":2143,
			"max":[
				0.04727032035589218,
				2.0204312801361084,
				0.15369097888469696
			],
			"min":[
				-0.06384477764368057,
				1.6989883184432983,
				-0.28210556507110596
			],
			"type":"VEC3"
		},
		{
			"bufferView":43,
			"componentType":5126,
			"count":2143,
			"type":"VEC3"
		},
		{
			"bufferView":44,
			"componentType":5126,
			"count":2143,
			"type":"VEC2"
		},
		{
			"bufferView":45,
			"componentType":5126,
			"count":2143,
			"type":"VEC2"
		},
		{
			"bufferView":46,
			"componentType":5126,
			"count":2143,
			"type":"VEC2"
		},
		{
			"bufferView":47,
			"componentType":5121,
			"count":2143,
			"type":"VEC4"
		},
		{
			"bufferView":48,
			"componentType":5126,
			"count":2143,
			"type":"VEC4"
		},
		{
			"bufferView":49,
			"componentType":5123,
			"count":3552,
			"type":"SCALAR"
		},
		{
			"bufferView":50,
			"componentType":5126,
			"count":23,
			"type":"MAT4"
		}
	],
	"bufferViews":[
		{
			"buffer":0,
			"byteLength":1728,
			"byteOffset":0,
			"target":34962
		},
		{
			"buffer":0,
			"byteLength":1728,
			"byteOffset":1728,
			"target":34962
		},
		{
			"buffer":0,
			"byteLength":1152,
			"byteOffset":3456,
			"target":34962
		},
		{
			"buffer":0,
			"byteLength":552,
			"byteOffset":4608,
			"target":34963
		},
		{
			"buffer":0,
			"byteLength":1728,
			"byteOffset":5160,
			"target":34962
		},
		{
			"buffer":0,
			"byteLength":1728,
			"byteOffset":6888,
			"target":34962
		},
		{
			"buffer":0,
			"byteLength":1152,
			"byteOffset":8616,
			"target":34962
		},
		{
			"buffer":0,
			"byteLength":552,
			"byteOffset":9768,
			"target":34963
		},
		{
			"buffer":0,
			"byteLength":1728,
			"byteOffset":10320,
			"target":34962
		},
		{
			"buffer":0,
			"byteLength":1728,
			"byteOffset":12048,
			"target":34962
		},
		{
			"buffer":0,
			"byteLength":1152,
			"byteOffset":13776,
			"target":34962
		},
		{
			"buffer":0,
			"byteLength":552,
			"byteOffset":14928,
			"target":34963
		},
		{
			"buffer":0,
			"byteLength":1728,
			"byteOffset":15480,
			"target":34962
		},
		{
			"buffer":0,
			"byteLength":1728,
			"byteOffset":17208,
			"target":34962
		},
		{
			"buffer":0,
			"byteLength":1152,
			"byteOffset":18936,
			"target":34962
		},
		{
			"buffer":0,
			"byteLength":552,
			"byteOffset":20088,
			"target":34963
		},
		{
			"buffer":0,
			"byteLength":1728,
			"byteOffset":20640,
			"target":34962
		},
		{
			"buffer":0,
			"byteLength":1728,
			"byteOffset":22368,
			"target":34962
		},
		{
			"buffer":0,
			"byteLength":1152,
			"byteOffset":24096,
			"target":34962
		},
		{
			"buffer":0,
			"byteLength":1800,
			"byteOffset":25248,
			"target":34962
		},
		{
			"buffer":0,
			"byteLength":1800,
			"byteOffset":27048,
			"target":34962
		},
		{
			"buffer":0,
			"byteLength":1200,
			"byteOffset":28848,
			"target":34962
		},
		{
			"buffer":0,
			"byteLength":552,
			"byteOffset":30048,
			"target":34963
		},
		{
			"buffer":0,
			"byteLength":1800,
			"byteOffset":30600,
			"target":34962
		},
		{
			"buffer":0,
			"byteLength":1800,
			"byteOffset":32400,
			"target":34962
		},
		{
			"buffer":0,
			"byteLength":1200,
			"byteOffset":34200,
			"target":34962
		},
		{
			"buffer":0,
			"byteLength":1728,
			"byteOffset":35400,
			"target":34962
		},
		{
			"buffer":0,
			"byteLength":1728,
			"byteOffset":37128,
			"target":34962
		},
		{
			"buffer":0,
			"byteLength":1152,
			"byteOffset":38856,
			"target":34962
		},
		{
			"buffer":0,
			"byteLength":552,
			"byteOffset":40008,
			"target":34963
		},
		{
			"buffer":0,
			"byteLength":1728,
			"byteOffset":40560,
			"target":34962
		},
		{
			"buffer":0,
			"byteLength":1728,
			"byteOffset":42288,
			"target":34962
		},
		{
			"buffer":0,
			"byteLength":1152,
			"byteOffset":44016,
			"target":34962
		},
		{
			"buffer":0,
			"byteLength":552,
			"byteOffset":45168,
			"target":34963
		},
		{
			"buffer":0,
			"byteLength":189768,
			"byteOffset":45720,
			"target":34962
		},
		{
			"buffer":0,
			"byteLength":189768,
			"byteOffset":235488,
			"target":34962
		},
		{
			"buffer":0,
			"byteLength":126512,
			"byteOffset":425256,
			"target":34962
		},
		{
			"buffer":0,
			"byteLength":126512,
			"byteOffset":551768,
			"target":34962
		},
		{
			"buffer":0,
			"byteLength":126512,
			"byteOffset":678280,
			"target":34962
		},
		{
			"buffer":0,
			"byteLength":63256,
			"byteOffset":804792,
			"target":34962
		},
		{
			"buffer":0,
			"byteLength":253024,
			"byteOffset":868048,
			"target":34962
		},
		{
			"buffer":0,
			"byteLength":129816,
			"byteOffset":1121072,
			"target":34963
		},
		{
			"buffer":0,
			"byteLength":25716,
			"byteOffset":1250888,
			"target":34962
		},
		{
			"buffer":0,
			"byteLength":25716,
			"byteOffset":1276604,
			"target":34962
		},
		{
			"buffer":0,
			"byteLength":17144,
			"byteOffset":1302320,
			"target":34962
		},
		{
			"buffer":0,
			"byteLength":17144,
			"byteOffset":1319464,
			"target":34962
		},
		{
			"buffer":0,
			"byteLength":17144,
			"byteOffset":1336608,
			"target":34962
		},
		{
			"buffer":0,
			"byteLength":8572,
			"byteOffset":1353752,
			"target":34962
		},
		{
			"buffer":0,
			"byteLength":34288,
			"byteOffset":1362324,
			"target":34962
		},
		{
			"buffer":0,
			"byteLength":7104,
			"byteOffset":1396612,
			"target":34963
		},
		{
			"buffer":0,
			"byteLength":1472,
			"byteOffset":1403716
		}
	],
	"samplers":[
		{
			"magFilter":9729,
			"minFilter":9987
		}
	],
	"buffers":[
		{
			"byteLength":1405188,
			"uri":"hoplite_body_lod0_22k_atlas.bin"
		}
	]
}
