{"asset":{"generator":"Khronos glTF Blender I/O v5.2.39","version":"2.0"},"scene":0,"scenes":[{"extras":{"spartan_manual_manifest":"C:\\Users\\suean\\AppData\\Local\\Temp\\3dgenstudio-meshtools\\spartan-manual\\b9df52c9d772458e9decc94725744f7f\\session.json","spartan_manual_status":"Saving a recovery checkpoint…","spartan_manual_alignment":"{\"height_scale\":0.955616,\"arm_span_scale\":1.19452,\"target_height\":1.828716,\"reference_height\":1.828716,\"aspect_error\":0.374993,\"extremity_fit\":{\"enabled\":true,\"coordinate_space\":\"blender_z_up\",\"adjusted\":2,\"landmarks\":[{\"landmark\":\"wrist_l\",\"adjusted\":false,\"reason\":\"insufficient surface samples\",\"samples\":0},{\"landmark\":\"wrist_r\",\"adjusted\":false,\"reason\":\"insufficient surface samples\",\"samples\":0},{\"landmark\":\"ankle_l\",\"adjusted\":true,\"samples\":470,\"samples_after\":470,\"before_error\":0.093591,\"after_error\":0.000106,\"shift\":[-0.074718,0.05636,0.0],\"clamped\":false},{\"landmark\":\"ankle_r\",\"adjusted\":true,\"samples\":471,\"samples_after\":471,\"before_error\":0.0936,\"after_error\":0.0001,\"shift\":[0.074726,0.056364,0.0],\"clamped\":false}],\"max_residual\":0.000106}}","spartan_manual_extremity_fit":"{\"enabled\":true,\"coordinate_space\":\"blender_z_up\",\"adjusted\":2,\"landmarks\":[{\"landmark\":\"wrist_l\",\"adjusted\":false,\"reason\":\"insufficient surface samples\",\"samples\":0},{\"landmark\":\"wrist_r\",\"adjusted\":false,\"reason\":\"insufficient surface samples\",\"samples\":0},{\"landmark\":\"ankle_l\",\"adjusted\":true,\"samples\":470,\"samples_after\":470,\"before_error\":0.093591,\"after_error\":0.000106,\"shift\":[-0.074718,0.05636,0.0],\"clamped\":false},{\"landmark\":\"ankle_r\",\"adjusted\":true,\"samples\":471,\"samples_after\":471,\"before_error\":0.0936,\"after_error\":0.0001,\"shift\":[0.074726,0.056364,0.0],\"clamped\":false}],\"max_residual\":0.000106}","spartan_manual_extremities":"{\"enabled\":true,\"collapsed_bones\":32,\"moved_vertices\":1943,\"moved_assignments\":1943,\"moved_weight\":616.099853}","spartan_manual_material_fixes":"{\"examined\":10,\"normal_rewired\":0,\"overmetallic_removed\":0,\"preserved\":10}","spartan_manual_action":"Driving_Loop","spartan_manual_preview_visible":0,"spartan_manual_rigid_bone":2},"name":"Scene","nodes":[25]}],"nodes":[{"name":"DEF-head","rotation":[-0.07867422699928284,-3.4519622715833975e-09,-1.4740819231917612e-08,0.9969003796577454],"scale":[1,1.0000001192092896,1],"translation":[-2.20003086115559e-15,0.0825861319899559,4.330649971961975e-08]},{"children":[0],"name":"DEF-neck","rotation":[0.11098598688840866,7.036852878172795e-09,2.0393379429606284e-08,0.9938219785690308],"scale":[1,1,0.9999999403953552],"translation":[2.7183218512510238e-15,0.1728910207748413,0]},{"name":"DEF-hand.L","rotation":[-0.00861956924200058,-4.589316802139365e-07,-2.1063019062239619e-07,0.9999628663063049],"translation":[5.246138243819587e-07,0.27264073491096497,1.3945737009635195e-08]},{"children":[2],"name":"DEF-forearm.L","rotation":[0.017182260751724243,-2.0563616999424994e-05,5.622823664452881e-07,0.9998524188995361],"translation":[1.4253049585022382e-07,0.2744404673576355,-7.494236342608929e-10]},{"children":[3],"name":"DEF-upper_arm.L","rotation":[0.18026961386203766,0.6838499903678894,-0.17983637750148773,0.6837477684020996],"scale":[0.9999999403953552,0.9999997615814209,0.9999998807907104],"translation":[-0.030072318390011787,0.21858157217502594,-0.016967233270406723]},{"children":[4],"name":"DEF-shoulder.L","rotation":[-0.6040205955505371,-0.3451031446456909,-0.3567178249359131,0.6235506534576416],"scale":[1.0000001192092896,1.0000001192092896,1],"translation":[0.018799955025315285,0.1405540406703949,0.08089502900838852]},{"name":"DEF-hand.R","rotation":[-0.008619701489806175,4.7681169235147536e-07,-8.871338330607159e-09,0.9999628663063049],"translation":[1.6236373312494834e-07,0.27264049649238586,-5.385061285778647e-09]},{"children":[6],"name":"DEF-forearm.R","rotation":[0.01718234084546566,2.048178794211708e-05,-3.575351854578912e-07,0.9998524188995361],"translation":[-2.31075063084063e-07,0.2744404077529907,-6.089612725190818e-08]},{"children":[7],"name":"DEF-upper_arm.R","rotation":[0.18026968836784363,-0.6838499307632446,0.17983658611774445,0.6837477684020996],"scale":[1,1,0.9999999403953552],"translation":[0.030072297900915146,0.21858170628547668,-0.016967851668596268]},{"children":[8],"name":"DEF-shoulder.R","rotation":[-0.6040207147598267,0.345102995634079,0.3567175269126892,0.6235507726669312],"scale":[0.9999999403953552,0.9999998807907104,0.9999999403953552],"translation":[-0.018799981102347374,0.14055415987968445,0.08089504390954971]},{"children":[1,5,9],"name":"DEF-spine.003","rotation":[-0.0002685738727450371,2.120055064835924e-08,-4.1750315010746775e-11,1],"translation":[-1.090606800357931e-15,0.14127163589000702,2.3283064365386963e-09]},{"children":[10],"name":"DEF-spine.002","rotation":[-0.07727993279695511,-1.0621670654131776e-08,-1.1199359661873132e-08,0.9970094561576843],"scale":[1,1,0.9999999403953552],"translation":[1.909636838376004e-15,0.12403448671102524,-1.557054929435253e-08]},{"children":[11],"name":"DEF-spine.001","rotation":[-0.06470274180173874,-8.560764541698518e-08,-1.5616647530691807e-08,0.9979045987129211],"scale":[1,1.0000001192092896,1],"translation":[2.0091164111080487e-14,0.13817650079727173,-7.729977369308472e-08]},{"name":"DEF-toe.L","rotation":[0.00013703436707146466,-0.9643064141273499,0.2647884488105774,0.0004997790092602372],"scale":[1,0.9999998807907104,0.9999998807907104],"translation":[-3.850800567306578e-09,0.1733001470565796,-5.619949661195278e-08]},{"children":[13],"name":"DEF-foot.L","rotation":[-0.5290708541870117,-0.0003280942910350859,0.00034345255699008703,0.8485775589942932],"scale":[1,1,0.9999998807907104],"translation":[7.62020135880448e-09,0.42947956919670105,1.5534169506281614e-09]},{"children":[14],"name":"DEF-shin.L","rotation":[0.03658569976687431,-0.00013133381435181946,-4.775233719556127e-06,0.9993305206298828],"scale":[0.9999999403953552,0.9999999403953552,0.9999998807907104],"translation":[5.90372906117409e-09,0.4003095328807831,1.7852919143024337e-10]},{"children":[15],"name":"DEF-thigh.L","rotation":[0.9924845099449158,2.0755779317482848e-08,3.2043510600487934e-07,0.1223703995347023],"scale":[1,1,1.0000032186508179],"translation":[0.08899994194507599,0.027770884335041046,0.04602377489209175]},{"name":"DEF-toe.R","rotation":[0.00013700374984182417,-0.9643060564994812,0.2647896111011505,0.0004998939111828804],"scale":[1,1.0000001192092896,1],"translation":[-3.7080098991282284e-09,0.17329949140548706,-6.005575414747e-08]},{"children":[17],"name":"DEF-foot.R","rotation":[-0.5290703177452087,-0.00032809507683850825,0.00034345261519774795,0.8485778570175171],"scale":[1,1,0.9999999403953552],"translation":[3.003015081048943e-08,0.4294793903827667,1.2478267308324575e-09]},{"children":[18],"name":"DEF-shin.R","rotation":[0.03658556193113327,-0.00013130642764735967,-4.776219611812849e-06,0.9993305206298828],"scale":[0.9999999403953552,0.9999999403953552,0.9999999403953552],"translation":[-3.851911500873939e-08,0.4003095328807831,1.6274270819849335e-10]},{"children":[19],"name":"DEF-thigh.R","rotation":[0.9924845695495605,1.7399825580355355e-08,2.932171128122718e-07,0.12237008661031723],"scale":[1,1.0000001192092896,1.000004529953003],"translation":[-0.08900002390146255,0.02777082473039627,0.04602373018860817]},{"children":[12,16,20],"name":"DEF-hips","rotation":[0.1258409321308136,1.2831696949433535e-07,2.4891626537737466e-08,0.9920504689216614],"scale":[1,0.9999998807907104,0.9999999403953552],"translation":[3.4297005235828237e-09,0.9166997075080872,-0.05010002478957176]},{"children":[21],"name":"root","rotation":[-8.557136332854043e-09,3.422855243684353e-08,-5.85796763134523e-16,1]},{"mesh":0,"name":"SPARTAN_character_body_LOD1","skin":0},{"children":[23,22],"extras":{"spartan_manual_canonical_rig":true,"spartan_manual_rest_snapshot":"{\"root\":{\"head\":[0.0,0.0,0.0],\"tail\":[0.0,3.142413262935406e-08,0.9180680513381958],\"roll\":3.422854533141617e-08},\"DEF-hips\":{\"head\":[0.0,0.05010004714131355,0.9166999459266663],\"tail\":[0.0,0.024139951914548874,1.0173799991607666],\"roll\":6.664001972467304e-08},\"DEF-spine.001\":{\"head\":[0.0,0.015600074082612991,1.0504999160766602],\"tail\":[0.0,0.00040008220821619034,1.1735999584197998],\"roll\":1.2665987014770508e-07},\"DEF-spine.002\":{\"head\":[0.0,0.00040010811062529683,1.1735999584197998],\"tail\":[0.0,0.004900156054645777,1.3148000240325928],\"roll\":6.244724204407248e-08},\"DEF-spine.003\":{\"head\":[0.0,0.004900154657661915,1.3148000240325928],\"tail\":[0.0,0.010188160464167595,1.4779711961746216],\"roll\":5.960464477539063e-08},\"DEF-neck\":{\"head\":[0.0,0.010500232689082623,1.4876000881195068],\"tail\":[0.0,-0.0050997259095311165,1.5687000751495361],\"roll\":6.143906006172983e-08},\"DEF-head\":{\"head\":[0.0,-0.005099722184240818,1.5686999559402466],\"tail\":[0.0,-0.0077851684764027596,1.651242971420288],\"roll\":9.685754776000977e-08},\"DEF-shoulder.L\":{\"head\":[0.01879999041557312,-0.07139978557825089,1.4579001665115356],\"tail\":[0.20950114727020264,0.04086459428071976,1.4577653408050537],\"roll\":0.0003997920430265367},\"DEF-upper_arm.L\":{\"head\":[0.19189992547035217,0.06540020555257797,1.4408003091812134],\"tail\":[0.46629995107650757,0.07010018825531006,1.4408003091812134],\"roll\":1.5708369016647339},\"DEF-forearm.L\":{\"head\":[0.4662999212741852,0.07010018825531006,1.4408005475997925],\"tail\":[0.7389000654220581,0.06540018320083618,1.440800666809082],\"roll\":1.5707956552505493},\"DEF-hand.L\":{\"head\":[0.7389000058174133,0.06540018320083618,1.440800428390503],\"tail\":[0.7878292202949524,0.06540017575025558,1.440800428390503],\"roll\":1.5707952976226807},\"DEF-f_index.01.L\":{\"head\":[0.858799934387207,0.034500181674957275,1.438800573348999],\"tail\":[0.8994999527931213,0.034500185400247574,1.438800573348999],\"roll\":-3.1415858268737793},\"DEF-f_index.02.L\":{\"head\":[0.8994999527931213,0.034500185400247574,1.4388004541397095],\"tail\":[0.9342999458312988,0.03450018912553787,1.4388004541397095],\"roll\":-3.1415858268737793},\"DEF-f_index.03.L\":{\"head\":[0.9342999458312988,0.034500181674957275,1.4388004541397095],\"tail\":[0.9690999388694763,0.034500185400247574,1.4388004541397095],\"roll\":-3.1415858268737793},\"DEF-f_middle.01.L\":{\"head\":[0.8604999780654907,0.060200173407793045,1.4412007331848145],\"tail\":[0.9027999639511108,0.06220017746090889,1.4412007331848145],\"roll\":-3.1415858268737793},\"DEF-f_middle.02.L\":{\"head\":[0.9027999639511108,0.06220018491148949,1.441200852394104],\"tail\":[0.9366999864578247,0.06370019167661667,1.441200852394104],\"roll\":-3.1415858268737793},\"DEF-f_middle.03.L\":{\"head\":[0.9366999864578247,0.06370018422603607,1.441200852394104],\"tail\":[0.9705965518951416,0.06527677923440933,1.441200852394104],\"roll\":-3.1415858268737793},\"DEF-f_pinky.01.L\":{\"head\":[0.8465997576713562,0.10620015114545822,1.439200758934021],\"tail\":[0.8867997527122498,0.10890015214681625,1.439200758934021],\"roll\":-3.1415858268737793},\"DEF-f_pinky.02.L\":{\"head\":[0.8867997527122498,0.10890014469623566,1.4392009973526],\"tail\":[0.9143998026847839,0.11080014705657959,1.4392009973526],\"roll\":-3.1415858268737793},\"DEF-f_pinky.03.L\":{\"head\":[0.9143998026847839,0.11080015450716019,1.4392009973526],\"tail\":[0.9420021772384644,0.11266651004552841,1.4392009973526],\"roll\":-3.1415858268737793},\"DEF-f_ring.01.L\":{\"head\":[0.8579998016357422,0.0825001671910286,1.4409005641937256],\"tail\":[0.8972999453544617,0.08390016853809357,1.4409005641937256],\"roll\":-3.1415858268737793},\"DEF-f_ring.02.L\":{\"head\":[0.8972998857498169,0.08390016853809357,1.4409005641937256],\"tail\":[0.9281999468803406,0.0850001722574234,1.4409005641937256],\"roll\":-3.1415860652923584},\"DEF-f_ring.03.L\":{\"head\":[0.9281999468803406,0.085000179708004,1.4409008026123047],\"tail\":[0.9590975642204285,0.0861661285161972,1.4409008026123047],\"roll\":-3.1415860652923584},\"DEF-thumb.01.L\":{\"head\":[0.7661998867988586,0.03180016204714775,1.4180008172988892],\"tail\":[0.8003998398780823,0.014100180938839912,1.3988008499145508],\"roll\":-1.0599992275238037},\"DEF-thumb.02.L\":{\"head\":[0.8003998398780823,0.014100207015872002,1.3988008499145508],\"tail\":[0.8393996953964233,-0.0060997456312179565,1.3769007921218872],\"roll\":-1.0599985122680664},\"DEF-thumb.03.L\":{\"head\":[0.8393998146057129,-0.00609975541010499,1.3769010305404663],\"tail\":[0.8784341216087341,-0.026277480646967888,1.3550419807434082],\"roll\":-1.061496615409851},\"DEF-shoulder.R\":{\"head\":[-0.01879999041557312,-0.07139978557825089,1.4579001665115356],\"tail\":[-0.20950116217136383,0.040864601731300354,1.4577653408050537],\"roll\":-0.0003997919848188758},\"DEF-upper_arm.R\":{\"head\":[-0.19189992547035217,0.06540019810199738,1.4408003091812134],\"tail\":[-0.4662998914718628,0.07010016590356827,1.4408003091812134],\"roll\":-1.5708370208740234},\"DEF-forearm.R\":{\"head\":[-0.466299831867218,0.07010018080472946,1.4408003091812134],\"tail\":[-0.738899827003479,0.06540010869503021,1.4408003091812134],\"roll\":-1.570796251296997},\"DEF-hand.R\":{\"head\":[-0.7388997673988342,0.06540010869503021,1.4408001899719238],\"tail\":[-0.7878291010856628,0.06540009379386902,1.4408001899719238],\"roll\":-1.5707952976226807},\"DEF-f_index.01.R\":{\"head\":[-0.8587995767593384,0.034500062465667725,1.43880033493042],\"tail\":[-0.8994996547698975,0.03450005501508713,1.43880033493042],\"roll\":3.1415858268737793},\"DEF-f_index.02.R\":{\"head\":[-0.8994996547698975,0.03450005501508713,1.43880033493042],\"tail\":[-0.9342997074127197,0.03450004756450653,1.43880033493042],\"roll\":3.1415858268737793},\"DEF-f_index.03.R\":{\"head\":[-0.934299647808075,0.03450005501508713,1.4388004541397095],\"tail\":[-0.9690996408462524,0.03450004756450653,1.4388004541397095],\"roll\":3.1415858268737793},\"DEF-f_middle.01.R\":{\"head\":[-0.8604996800422668,0.06020006164908409,1.4412003755569458],\"tail\":[-0.9027997255325317,0.06220005080103874,1.4412003755569458],\"roll\":3.1415858268737793},\"DEF-f_middle.02.R\":{\"head\":[-0.9027997255325317,0.062200047075748444,1.4412004947662354],\"tail\":[-0.9366997480392456,0.06370004266500473,1.4412004947662354],\"roll\":3.1415858268737793},\"DEF-f_middle.03.R\":{\"head\":[-0.9366997480392456,0.06370005011558533,1.441200613975525],\"tail\":[-0.9705963134765625,0.0652766302227974,1.441200613975525],\"roll\":3.1415858268737793},\"DEF-f_pinky.01.R\":{\"head\":[-0.8465996384620667,0.10620006173849106,1.4392004013061523],\"tail\":[-0.8867996335029602,0.1089000478386879,1.4392004013061523],\"roll\":3.1415858268737793},\"DEF-f_pinky.02.R\":{\"head\":[-0.8867995738983154,0.1089000552892685,1.439200520515442],\"tail\":[-0.9143996834754944,0.11080005019903183,1.439200520515442],\"roll\":3.1415858268737793},\"DEF-f_pinky.03.R\":{\"head\":[-0.9143996834754944,0.11080004274845123,1.4392004013061523],\"tail\":[-0.9420020580291748,0.11266639083623886,1.4392004013061523],\"roll\":3.1415858268737793},\"DEF-f_ring.01.R\":{\"head\":[-0.8579995632171631,0.08250006288290024,1.4408999681472778],\"tail\":[-0.8972996473312378,0.08390004932880402,1.4408999681472778],\"roll\":3.1415860652923584},\"DEF-f_ring.02.R\":{\"head\":[-0.8972996473312378,0.08390005677938461,1.4409000873565674],\"tail\":[-0.9281997084617615,0.08500005304813385,1.4409000873565674],\"roll\":3.1415860652923584},\"DEF-f_ring.03.R\":{\"head\":[-0.9281997084617615,0.08500006049871445,1.4409003257751465],\"tail\":[-0.9590973854064941,0.08616600185632706,1.4409003257751465],\"roll\":3.1415860652923584},\"DEF-thumb.01.R\":{\"head\":[-0.7661997079849243,0.03180008754134178,1.4180004596710205],\"tail\":[-0.8003998398780823,0.01410001888871193,1.3988004922866821],\"roll\":1.0600024461746216},\"DEF-thumb.02.R\":{\"head\":[-0.8003997206687927,0.014100056141614914,1.398800253868103],\"tail\":[-0.839399516582489,-0.006099868565797806,1.376900315284729],\"roll\":1.0600008964538574},\"DEF-thumb.03.R\":{\"head\":[-0.8393996357917786,-0.006099873222410679,1.3769004344940186],\"tail\":[-0.878433883190155,-0.0262775756418705,1.3550413846969604],\"roll\":1.0614956617355347},\"DEF-thigh.L\":{\"head\":[0.08899997919797897,-0.001399931963533163,0.9320999979972839],\"tail\":[0.08899997919797897,0.0013999994844198227,0.5318000316619873],\"roll\":6.13277890693098e-08},\"DEF-shin.L\":{\"head\":[0.08899998664855957,0.0013999987859278917,0.5318001508712769],\"tail\":[0.08899998664855957,0.03579995781183243,0.10370007157325745],\"roll\":-0.00026252129464410245},\"DEF-foot.L\":{\"head\":[0.08899997174739838,0.035799942910671234,0.10370022058486938],\"tail\":[0.08899997174739838,-0.11320009082555771,0.015200175344944],\"roll\":-0.0010358026484027505},\"DEF-toe.L\":{\"head\":[0.08899999409914017,-0.11320005357265472,0.015200218185782433],\"tail\":[0.08899999409914017,-0.2865011394023895,0.015200196765363216],\"roll\":1.3143797161774273e-07},\"DEF-thigh.R\":{\"head\":[-0.08899997919797897,-0.001399931963533163,0.9320999979972839],\"tail\":[-0.08899997919797897,0.00139999995008111,0.5318000316619873],\"roll\":6.111527284247131e-08},\"DEF-shin.R\":{\"head\":[-0.08899999409914017,0.0013999990187585354,0.5318001508712769],\"tail\":[-0.08899999409914017,0.03579995408654213,0.10370013117790222],\"roll\":-0.00026252129464410245},\"DEF-foot.R\":{\"head\":[-0.08899997919797897,0.035799939185380936,0.10370030999183655],\"tail\":[-0.08899997919797897,-0.1132000982761383,0.015200264751911163],\"roll\":-0.0010358026484027505},\"DEF-toe.R\":{\"head\":[-0.08899998664855957,-0.11320006102323532,0.015200307592749596],\"tail\":[-0.08899998664855957,-0.2865011394023895,0.01520028617233038],\"roll\":1.3143798582859745e-07}}"},"name":"SPARTAN_Skeleton"},{"children":[24],"extras":{"spartan_schema":1,"spartan_rig_profile":"spartan_ual1_v1","spartan_asset_stage":"dismemberment_body","spartan_zone_attribute":"TEXCOORD_2.x_float32_zone_id"},"name":"SPARTAN_BODY_ROOT"}],"materials":[{"doubleSided":true,"name":"Hoplite_LOD1_Atlas","pbrMetallicRoughness":{"baseColorTexture":{"index":0},"metallicFactor":0.15000000596046448,"roughnessFactor":0.5799999833106995}}],"meshes":[{"name":"SPARTAN_character_body_LOD1_mesh","primitives":[{"attributes":{"POSITION":0,"NORMAL":1,"TEXCOORD_0":2,"JOINTS_0":3,"WEIGHTS_0":4},"indices":5,"material":0}]}],"textures":[{"sampler":0,"source":0}],"images":[{"mimeType":"image/png","name":"Hoplite_LOD1_Atlas","uri":"../textures/hoplite_lod1_atlas.png"}],"skins":[{"inverseBindMatrices":6,"joints":[22,21,12,11,10,1,0,5,4,3,2,9,8,7,6,16,15,14,13,20,19,18,17],"name":"SPARTAN_Skeleton"}],"accessors":[{"bufferView":0,"componentType":5126,"count":16971,"max":[0.9941935539245605,1.9616285562515259,0.16489596664905548],"min":[-1.009769320487976,-0.008465628139674664,-0.27023160457611084],"type":"VEC3"},{"bufferView":1,"componentType":5126,"count":16971,"type":"VEC3"},{"bufferView":2,"componentType":5126,"count":16971,"type":"VEC2"},{"bufferView":3,"componentType":5121,"count":16971,"type":"VEC4"},{"bufferView":4,"componentType":5126,"count":16971,"type":"VEC4"},{"bufferView":5,"componentType":5123,"count":44979,"type":"SCALAR"},{"bufferView":6,"componentType":5126,"count":23,"type":"MAT4"}],"bufferViews":[{"buffer":0,"byteLength":203652,"byteOffset":0,"target":34962},{"buffer":0,"byteLength":203652,"byteOffset":203652,"target":34962},{"buffer":0,"byteLength":135768,"byteOffset":407304,"target":34962},{"buffer":0,"byteLength":67884,"byteOffset":543072,"target":34962},{"buffer":0,"byteLength":271536,"byteOffset":610956,"target":34962},{"buffer":0,"byteLength":89958,"byteOffset":882492,"target":34963},{"buffer":0,"byteLength":1472,"byteOffset":972452}],"samplers":[{"magFilter":9729,"minFilter":9987}],"buffers":[{"byteLength":973924,"uri":"hoplite_body_lod1_15k.bin"}]}