{"asset":{"generator":"Khronos glTF Blender I/O v5.2.39","version":"2.0"},"scene":0,"scenes":[{"extras":{"spartan_manual_manifest":"C:\\Users\\suean\\AppData\\Local\\Temp\\3dgenstudio-meshtools\\spartan-manual\\b9df52c9d772458e9decc94725744f7f\\session.json","spartan_manual_status":"Saving a recovery checkpoint…","spartan_manual_alignment":"{\"height_scale\":0.955616,\"arm_span_scale\":1.19452,\"target_height\":1.828716,\"reference_height\":1.828716,\"aspect_error\":0.374993,\"extremity_fit\":{\"enabled\":true,\"coordinate_space\":\"blender_z_up\",\"adjusted\":2,\"landmarks\":[{\"landmark\":\"wrist_l\",\"adjusted\":false,\"reason\":\"insufficient surface samples\",\"samples\":0},{\"landmark\":\"wrist_r\",\"adjusted\":false,\"reason\":\"insufficient surface samples\",\"samples\":0},{\"landmark\":\"ankle_l\",\"adjusted\":true,\"samples\":470,\"samples_after\":470,\"before_error\":0.093591,\"after_error\":0.000106,\"shift\":[-0.074718,0.05636,0.0],\"clamped\":false},{\"landmark\":\"ankle_r\",\"adjusted\":true,\"samples\":471,\"samples_after\":471,\"before_error\":0.0936,\"after_error\":0.0001,\"shift\":[0.074726,0.056364,0.0],\"clamped\":false}],\"max_residual\":0.000106}}","spartan_manual_extremity_fit":"{\"enabled\":true,\"coordinate_space\":\"blender_z_up\",\"adjusted\":2,\"landmarks\":[{\"landmark\":\"wrist_l\",\"adjusted\":false,\"reason\":\"insufficient surface samples\",\"samples\":0},{\"landmark\":\"wrist_r\",\"adjusted\":false,\"reason\":\"insufficient surface samples\",\"samples\":0},{\"landmark\":\"ankle_l\",\"adjusted\":true,\"samples\":470,\"samples_after\":470,\"before_error\":0.093591,\"after_error\":0.000106,\"shift\":[-0.074718,0.05636,0.0],\"clamped\":false},{\"landmark\":\"ankle_r\",\"adjusted\":true,\"samples\":471,\"samples_after\":471,\"before_error\":0.0936,\"after_error\":0.0001,\"shift\":[0.074726,0.056364,0.0],\"clamped\":false}],\"max_residual\":0.000106}","spartan_manual_extremities":"{\"enabled\":true,\"collapsed_bones\":32,\"moved_vertices\":1943,\"moved_assignments\":1943,\"moved_weight\":616.099853}","spartan_manual_material_fixes":"{\"examined\":10,\"normal_rewired\":0,\"overmetallic_removed\":0,\"preserved\":10}","spartan_manual_action":"Driving_Loop","spartan_manual_preview_visible":0,"spartan_manual_rigid_bone":2},"name":"Scene","nodes":[34]}],"nodes":[{"mesh":0,"name":"SPARTAN_gore_cap_forearm_l_body","scale":[0,0,0],"translation":[0.46629995107650757,1.4408009052276611,-0.07010011374950409]},{"mesh":1,"name":"SPARTAN_gore_cap_forearm_r_body","scale":[0,0,0],"translation":[-0.46629995107650757,1.4408005475997925,-0.07010023295879364]},{"mesh":2,"name":"SPARTAN_gore_cap_head_body","scale":[0,0,0],"translation":[0,1.5686997175216675,0.005099689122289419]},{"mesh":3,"name":"SPARTAN_gore_cap_shin_l_body","scale":[0,0,0],"translation":[0.08899999409914017,0.5318002700805664,-0.0014001879608258605]},{"mesh":4,"name":"SPARTAN_gore_cap_shin_r_body","scale":[0,0,0],"translation":[-0.08900000154972076,0.5318001508712769,-0.0014001877279952168]},{"mesh":5,"name":"SPARTAN_gore_cap_thigh_l_body","scale":[0,0,0],"translation":[0.08899997174739838,0.9320998787879944,0.0013998787617310882]},{"mesh":6,"name":"SPARTAN_gore_cap_thigh_r_body","scale":[0,0,0],"translation":[-0.08899997919797897,0.9320998787879944,0.0013998794602230191]},{"mesh":7,"name":"SPARTAN_gore_cap_upper_arm_l_body","scale":[0,0,0],"translation":[0.1918998807668686,1.440800666809082,-0.06540019065141678]},{"mesh":8,"name":"SPARTAN_gore_cap_upper_arm_r_body","scale":[0,0,0],"translation":[-0.19189992547035217,1.4408005475997925,-0.06540025770664215]},{"name":"DEF-head","rotation":[-0.07867422699928284,-3.4519622715833975e-09,-1.4740819231917612e-08,0.9969003796577454],"scale":[1,1.0000001192092896,1],"translation":[-2.20003086115559e-15,0.0825861319899559,4.330649971961975e-08]},{"children":[9],"name":"DEF-neck","rotation":[0.11098598688840866,7.036852878172795e-09,2.0393379429606284e-08,0.9938219785690308],"scale":[1,1,0.9999999403953552],"translation":[2.7183218512510238e-15,0.1728910207748413,0]},{"name":"DEF-hand.L","rotation":[-0.008619564585387707,-4.589316802139365e-07,-2.106301195681226e-07,0.9999628663063049],"translation":[5.246138243819587e-07,0.27264073491096497,1.3945737009635195e-08]},{"children":[11],"name":"DEF-forearm.L","rotation":[0.017182260751724243,-2.0563616999424994e-05,5.622823664452881e-07,0.9998524188995361],"translation":[1.4253049585022382e-07,0.2744404673576355,-7.494236342608929e-10]},{"children":[12],"name":"DEF-upper_arm.L","rotation":[0.18026961386203766,0.6838499903678894,-0.17983637750148773,0.6837477684020996],"scale":[0.9999999403953552,0.9999997615814209,0.9999998807907104],"translation":[-0.030072318390011787,0.21858157217502594,-0.016967233270406723]},{"children":[13],"name":"DEF-shoulder.L","rotation":[-0.6040205955505371,-0.3451031446456909,-0.3567178249359131,0.6235506534576416],"scale":[1.0000001192092896,1.0000001192092896,1],"translation":[0.018799955025315285,0.1405540406703949,0.08089502900838852]},{"name":"DEF-hand.R","rotation":[-0.008619733154773712,4.768116355080565e-07,-8.871370305030268e-09,0.9999628663063049],"translation":[1.6236373312494834e-07,0.27264049649238586,-5.385061285778647e-09]},{"children":[15],"name":"DEF-forearm.R","rotation":[0.01718234084546566,2.048178794211708e-05,-3.575351854578912e-07,0.9998524188995361],"translation":[-2.31075063084063e-07,0.2744404077529907,-6.089612725190818e-08]},{"children":[16],"name":"DEF-upper_arm.R","rotation":[0.18026968836784363,-0.6838499307632446,0.17983658611774445,0.6837477684020996],"scale":[1,1,0.9999999403953552],"translation":[0.030072297900915146,0.21858170628547668,-0.016967851668596268]},{"children":[17],"name":"DEF-shoulder.R","rotation":[-0.6040207147598267,0.345102995634079,0.3567175269126892,0.6235507726669312],"scale":[0.9999999403953552,0.9999998807907104,0.9999999403953552],"translation":[-0.018799981102347374,0.14055415987968445,0.08089504390954971]},{"children":[10,14,18],"name":"DEF-spine.003","rotation":[-0.0002685738727450371,2.120055064835924e-08,-4.1750315010746775e-11,1],"translation":[-1.090606800357931e-15,0.14127163589000702,2.3283064365386963e-09]},{"children":[19],"name":"DEF-spine.002","rotation":[-0.07727993279695511,-1.0621670654131776e-08,-1.1199359661873132e-08,0.9970094561576843],"scale":[1,1,0.9999999403953552],"translation":[1.909636838376004e-15,0.12403448671102524,-1.557054929435253e-08]},{"children":[20],"name":"DEF-spine.001","rotation":[-0.06470274180173874,-8.560764541698518e-08,-1.5616647530691807e-08,0.9979045987129211],"scale":[1,1.0000001192092896,1],"translation":[2.0091164111080487e-14,0.13817650079727173,-7.729977369308472e-08]},{"name":"DEF-toe.L","rotation":[0.00013703436707146466,-0.9643064141273499,0.2647884488105774,0.0004997790092602372],"scale":[1,0.9999998807907104,0.9999998807907104],"translation":[-3.850800567306578e-09,0.1733001470565796,-5.619949661195278e-08]},{"children":[22],"name":"DEF-foot.L","rotation":[-0.5290708541870117,-0.0003280942910350859,0.00034345255699008703,0.8485775589942932],"scale":[1,1,0.9999998807907104],"translation":[7.62020135880448e-09,0.42947956919670105,1.5534169506281614e-09]},{"children":[23],"name":"DEF-shin.L","rotation":[0.03658569976687431,-0.00013133381435181946,-4.775233719556127e-06,0.9993305206298828],"scale":[0.9999999403953552,0.9999999403953552,0.9999998807907104],"translation":[5.90372906117409e-09,0.4003095328807831,1.7852919143024337e-10]},{"children":[24],"name":"DEF-thigh.L","rotation":[0.9924845099449158,2.0755779317482848e-08,3.2043510600487934e-07,0.1223703995347023],"scale":[1,1,1.0000032186508179],"translation":[0.08899994194507599,0.027770884335041046,0.04602377489209175]},{"name":"DEF-toe.R","rotation":[0.00013700374984182417,-0.9643060564994812,0.2647896111011505,0.0004998939111828804],"scale":[1,1.0000001192092896,1],"translation":[-3.7080098991282284e-09,0.17329949140548706,-6.005575414747e-08]},{"children":[26],"name":"DEF-foot.R","rotation":[-0.5290703177452087,-0.00032809507683850825,0.00034345261519774795,0.8485778570175171],"scale":[1,1,0.9999999403953552],"translation":[3.003015081048943e-08,0.4294793903827667,1.2478267308324575e-09]},{"children":[27],"name":"DEF-shin.R","rotation":[0.03658556193113327,-0.00013130642764735967,-4.776219611812849e-06,0.9993305206298828],"scale":[0.9999999403953552,0.9999999403953552,0.9999999403953552],"translation":[-3.851911500873939e-08,0.4003095328807831,1.6274270819849335e-10]},{"children":[28],"name":"DEF-thigh.R","rotation":[0.9924845695495605,1.7399825580355355e-08,2.932171128122718e-07,0.12237008661031723],"scale":[1,1.0000001192092896,1.000004529953003],"translation":[-0.08900002390146255,0.02777082473039627,0.04602373018860817]},{"children":[21,25,29],"name":"DEF-hips","rotation":[0.1258409321308136,1.2831696949433535e-07,2.4891626537737466e-08,0.9920504689216614],"scale":[1,0.9999998807907104,0.9999999403953552],"translation":[3.4297005235828237e-09,0.9166997075080872,-0.05010002478957176]},{"children":[30],"name":"root","rotation":[-8.557136332854043e-09,3.422855243684353e-08,-5.85796763134523e-16,1]},{"mesh":9,"name":"SPARTAN_character_body","skin":0},{"children":[32,31],"name":"SPARTAN_Skeleton"},{"children":[0,1,2,3,4,5,6,7,8,33],"name":"SPARTAN_BODY_ROOT"}],"materials":[{"doubleSided":true,"name":"SPARTAN_Flesh","pbrMetallicRoughness":{"baseColorFactor":[0.3199999928474426,0.006000000052154064,0.012000000104308128,1],"metallicFactor":0,"roughnessFactor":0.6800000071525574}},{"doubleSided":true,"name":"M_Armor3.001","normalTexture":{"index":0},"occlusionTexture":{"index":1},"pbrMetallicRoughness":{"baseColorTexture":{"index":2},"metallicRoughnessTexture":{"index":1},"roughnessFactor":0.800000011920929}},{"doubleSided":true,"name":"M_Face.001","normalTexture":{"index":3},"pbrMetallicRoughness":{"baseColorTexture":{"index":4},"metallicFactor":0,"metallicRoughnessTexture":{"index":5}}},{"doubleSided":true,"name":"M_Body.001","normalTexture":{"index":6},"pbrMetallicRoughness":{"baseColorTexture":{"index":7},"metallicFactor":0,"metallicRoughnessTexture":{"index":8}}},{"doubleSided":true,"name":"M_Armor.001","normalTexture":{"index":9},"occlusionTexture":{"index":10},"pbrMetallicRoughness":{"baseColorTexture":{"index":11},"metallicRoughnessTexture":{"index":10}}},{"doubleSided":true,"name":"M_Armor2.001","normalTexture":{"index":12},"occlusionTexture":{"index":13},"pbrMetallicRoughness":{"baseColorTexture":{"index":14},"metallicRoughnessTexture":{"index":13},"roughnessFactor":0.800000011920929}},{"alphaCutoff":0.36437228322029114,"alphaMode":"MASK","doubleSided":true,"name":"M_Crest.001","normalTexture":{"index":15},"pbrMetallicRoughness":{"baseColorTexture":{"index":16},"metallicFactor":0,"metallicRoughnessTexture":{"index":17}}},{"doubleSided":true,"name":"Armor.001","normalTexture":{"index":18},"occlusionTexture":{"index":19},"pbrMetallicRoughness":{"baseColorTexture":{"index":20},"metallicRoughnessTexture":{"index":19}}},{"doubleSided":true,"name":"Armor2.001","normalTexture":{"index":21},"occlusionTexture":{"index":22},"pbrMetallicRoughness":{"baseColorTexture":{"index":23},"metallicRoughnessTexture":{"index":22}}}],"meshes":[{"name":"SPARTAN_gore_cap_forearm_l_body_mesh","primitives":[{"attributes":{"POSITION":0,"NORMAL":1,"TEXCOORD_0":2},"indices":3,"material":0}]},{"name":"SPARTAN_gore_cap_forearm_r_body_mesh","primitives":[{"attributes":{"POSITION":4,"NORMAL":5,"TEXCOORD_0":6},"indices":7,"material":0}]},{"name":"SPARTAN_gore_cap_head_body_mesh","primitives":[{"attributes":{"POSITION":8,"NORMAL":9,"TEXCOORD_0":10},"indices":11,"material":0}]},{"name":"SPARTAN_gore_cap_shin_l_body_mesh","primitives":[{"attributes":{"POSITION":12,"NORMAL":13,"TEXCOORD_0":14},"indices":15,"material":0}]},{"name":"SPARTAN_gore_cap_shin_r_body_mesh","primitives":[{"attributes":{"POSITION":16,"NORMAL":17,"TEXCOORD_0":18},"indices":15,"material":0}]},{"name":"SPARTAN_gore_cap_thigh_l_body_mesh","primitives":[{"attributes":{"POSITION":19,"NORMAL":20,"TEXCOORD_0":21},"indices":22,"material":0}]},{"name":"SPARTAN_gore_cap_thigh_r_body_mesh","primitives":[{"attributes":{"POSITION":23,"NORMAL":24,"TEXCOORD_0":25},"indices":22,"material":0}]},{"name":"SPARTAN_gore_cap_upper_arm_l_body_mesh","primitives":[{"attributes":{"POSITION":26,"NORMAL":27,"TEXCOORD_0":28},"indices":29,"material":0}]},{"name":"SPARTAN_gore_cap_upper_arm_r_body_mesh","primitives":[{"attributes":{"POSITION":30,"NORMAL":31,"TEXCOORD_0":32},"indices":33,"material":0}]},{"name":"SM_Belt_LP_M_Armor3_0","primitives":[{"attributes":{"POSITION":34,"NORMAL":35,"TEXCOORD_0":36,"TEXCOORD_1":37,"TEXCOORD_2":38,"JOINTS_0":39,"WEIGHTS_0":40},"indices":41,"material":1},{"attributes":{"POSITION":42,"NORMAL":43,"TEXCOORD_0":44,"TEXCOORD_1":45,"TEXCOORD_2":46,"JOINTS_0":47,"WEIGHTS_0":48},"indices":49,"material":2},{"attributes":{"POSITION":50,"NORMAL":51,"TEXCOORD_0":52,"TEXCOORD_1":53,"TEXCOORD_2":54,"JOINTS_0":55,"WEIGHTS_0":56},"indices":57,"material":3},{"attributes":{"POSITION":58,"NORMAL":59,"TEXCOORD_0":60,"TEXCOORD_1":61,"TEXCOORD_2":62,"JOINTS_0":63,"WEIGHTS_0":64},"indices":65,"material":4},{"attributes":{"POSITION":66,"NORMAL":67,"TEXCOORD_0":68,"TEXCOORD_1":69,"TEXCOORD_2":70,"JOINTS_0":71,"WEIGHTS_0":72},"indices":73,"material":5},{"attributes":{"POSITION":74,"NORMAL":75,"TEXCOORD_0":76,"TEXCOORD_1":77,"TEXCOORD_2":78,"JOINTS_0":79,"WEIGHTS_0":80},"indices":81,"material":6},{"attributes":{"POSITION":82,"NORMAL":83,"TEXCOORD_0":84,"TEXCOORD_1":85,"TEXCOORD_2":86,"JOINTS_0":87,"WEIGHTS_0":88},"indices":89,"material":7},{"attributes":{"POSITION":90,"NORMAL":91,"TEXCOORD_0":92,"TEXCOORD_1":93,"TEXCOORD_2":94,"JOINTS_0":95,"WEIGHTS_0":96},"indices":97,"material":8}]}],"textures":[{"sampler":0,"source":0},{"sampler":0,"source":1},{"sampler":0,"source":2},{"sampler":0,"source":3},{"sampler":0,"source":4},{"sampler":0,"source":5},{"sampler":0,"source":6},{"sampler":0,"source":7},{"sampler":0,"source":8},{"sampler":0,"source":9},{"sampler":0,"source":10},{"sampler":0,"source":11},{"sampler":0,"source":12},{"sampler":0,"source":13},{"sampler":0,"source":14},{"sampler":0,"source":15},{"sampler":0,"source":16},{"sampler":0,"source":17},{"sampler":0,"source":9},{"sampler":0,"source":18},{"sampler":0,"source":11},{"sampler":0,"source":12},{"sampler":0,"source":13},{"sampler":0,"source":14}],"images":[{"mimeType":"image/png","name":"Image_11","uri":"../textures/e2221fae993be353.png"},{"mimeType":"image/png","name":"Image_10","uri":"../textures/28528b2d34cbdde5.png"},{"mimeType":"image/png","name":"Image_9","uri":"../textures/cb11726b577df6e6.png"},{"mimeType":"image/png","name":"Image_2","uri":"../textures/1eb8f8e2158d0b65.png"},{"mimeType":"image/png","name":"Image_0","uri":"../textures/bf4beb7ce68bbb11.png"},{"mimeType":"image/png","name":"Image_1","uri":"../textures/e17f386b96de5328.png"},{"mimeType":"image/png","name":"Image_8","uri":"../textures/8fb40e2cf73b74c5.png"},{"mimeType":"image/png","name":"Image_6","uri":"../textures/77eb3c0a7d774b2f.png"},{"mimeType":"image/png","name":"Image_7","uri":"../textures/6e5e557937f5e11c.png"},{"mimeType":"image/png","name":"Image_14","uri":"../textures/11b6d005e7d57465.png"},{"mimeType":"image/png","name":"Image_13","uri":"../textures/054a33cec0b68c16.png"},{"mimeType":"image/png","name":"Image_12","uri":"../textures/49c8b6628b741177.png"},{"mimeType":"image/png","name":"Image_17","uri":"../textures/fd1bdabe143f63cb.png"},{"mimeType":"image/png","name":"Image_16","uri":"../textures/b6ebd4b722772f42.png"},{"mimeType":"image/png","name":"Image_15","uri":"../textures/40c42509ac8a08b0.png"},{"mimeType":"image/png","name":"Image_20","uri":"../textures/cbcdaacc8b8af186.png"},{"mimeType":"image/png","name":"Image_18","uri":"../textures/f9456946a1ffb94e.png"},{"mimeType":"image/png","name":"Image_19","uri":"../textures/5be8be97968bc726.png"},{"mimeType":"image/png","name":"Image_21","uri":"../textures/29a0b871f6256a96.png"}],"skins":[{"inverseBindMatrices":98,"joints":[31,30,21,20,19,10,9,14,13,12,11,18,17,16,15,25,24,23,22,29,28,27,26],"name":"SPARTAN_Skeleton"}],"accessors":[{"bufferView":0,"componentType":5126,"count":144,"max":[0.011411771178245544,0.13997919857501984,0.14011354744434357],"min":[-0.011411771178245544,-0.13997919857501984,-0.14011354744434357],"type":"VEC3"},{"bufferView":1,"componentType":5126,"count":144,"type":"VEC3"},{"bufferView":2,"componentType":5126,"count":144,"type":"VEC2"},{"bufferView":3,"componentType":5123,"count":276,"type":"SCALAR"},{"bufferView":4,"componentType":5126,"count":144,"max":[0.011411790736019611,0.13997921347618103,0.14011354744434357],"min":[-0.011411790736019611,-0.13997921347618103,-0.14011354744434357],"type":"VEC3"},{"bufferView":5,"componentType":5126,"count":144,"type":"VEC3"},{"bufferView":6,"componentType":5126,"count":144,"type":"VEC2"},{"bufferView":7,"componentType":5123,"count":276,"type":"SCALAR"},{"bufferView":8,"componentType":5126,"count":144,"max":[0.15000000596046448,0.01387273333966732,0.1502133309841156],"min":[-0.15000000596046448,-0.01387273333966732,-0.1502133309841156],"type":"VEC3"},{"bufferView":9,"componentType":5126,"count":144,"type":"VEC3"},{"bufferView":10,"componentType":5126,"count":144,"type":"VEC2"},{"bufferView":11,"componentType":5123,"count":276,"type":"SCALAR"},{"bufferView":12,"componentType":5126,"count":144,"max":[0.18000000715255737,0.023388531059026718,0.18014255166053772],"min":[-0.18000000715255737,-0.023388531059026718,-0.18014255166053772],"type":"VEC3"},{"bufferView":13,"componentType":5126,"count":144,"type":"VEC3"},{"bufferView":14,"componentType":5126,"count":144,"type":"VEC2"},{"bufferView":15,"componentType":5123,"count":276,"type":"SCALAR"},{"bufferView":16,"componentType":5126,"count":144,"max":[0.18000000715255737,0.023388531059026718,0.18014255166053772],"min":[-0.18000000715255737,-0.023388531059026718,-0.18014255166053772],"type":"VEC3"},{"bufferView":17,"componentType":5126,"count":144,"type":"VEC3"},{"bufferView":18,"componentType":5126,"count":144,"type":"VEC2"},{"bufferView":19,"componentType":5126,"count":150,"max":[0.20999999344348907,0.010468678548932076,0.2100578248500824],"min":[-0.20999999344348907,-0.010468678548932076,-0.2100578248500824],"type":"VEC3"},{"bufferView":20,"componentType":5126,"count":150,"type":"VEC3"},{"bufferView":21,"componentType":5126,"count":150,"type":"VEC2"},{"bufferView":22,"componentType":5123,"count":276,"type":"SCALAR"},{"bufferView":23,"componentType":5126,"count":150,"max":[0.20999999344348907,0.010468678548932076,0.2100578248500824],"min":[-0.20999999344348907,-0.010468678548932076,-0.2100578248500824],"type":"VEC3"},{"bufferView":24,"componentType":5126,"count":150,"type":"VEC3"},{"bufferView":25,"componentType":5126,"count":150,"type":"VEC2"},{"bufferView":26,"componentType":5126,"count":144,"max":[0.011738356202840805,0.1599765568971634,0.16010719537734985],"min":[-0.011738356202840805,-0.1599765568971634,-0.16010719537734985],"type":"VEC3"},{"bufferView":27,"componentType":5126,"count":144,"type":"VEC3"},{"bufferView":28,"componentType":5126,"count":144,"type":"VEC2"},{"bufferView":29,"componentType":5123,"count":276,"type":"SCALAR"},{"bufferView":30,"componentType":5126,"count":144,"max":[0.011738370172679424,0.1599765568971634,0.16010719537734985],"min":[-0.011738370172679424,-0.1599765568971634,-0.16010719537734985],"type":"VEC3"},{"bufferView":31,"componentType":5126,"count":144,"type":"VEC3"},{"bufferView":32,"componentType":5126,"count":144,"type":"VEC2"},{"bufferView":33,"componentType":5123,"count":276,"type":"SCALAR"},{"bufferView":34,"componentType":5126,"count":728,"max":[0.8255826234817505,1.5443153381347656,0.16667090356349945],"min":[-0.8295632600784302,-0.009827266447246075,-0.280764102935791],"type":"VEC3"},{"bufferView":35,"componentType":5126,"count":728,"type":"VEC3"},{"bufferView":36,"componentType":5126,"count":728,"type":"VEC2"},{"bufferView":37,"componentType":5126,"count":728,"type":"VEC2"},{"bufferView":38,"componentType":5126,"count":728,"type":"VEC2"},{"bufferView":39,"componentType":5121,"count":728,"type":"VEC4"},{"bufferView":40,"componentType":5126,"count":728,"type":"VEC4"},{"bufferView":41,"componentType":5123,"count":1452,"type":"SCALAR"},{"bufferView":42,"componentType":5126,"count":72,"max":[0.22505196928977966,1.8237988948822021,0.07591023296117783],"min":[-0.24736085534095764,1.4294896125793457,-0.1604354828596115],"type":"VEC3"},{"bufferView":43,"componentType":5126,"count":72,"type":"VEC3"},{"bufferView":44,"componentType":5126,"count":72,"type":"VEC2"},{"bufferView":45,"componentType":5126,"count":72,"type":"VEC2"},{"bufferView":46,"componentType":5126,"count":72,"type":"VEC2"},{"bufferView":47,"componentType":5121,"count":72,"type":"VEC4"},{"bufferView":48,"componentType":5126,"count":72,"type":"VEC4"},{"bufferView":49,"componentType":5123,"count":228,"type":"SCALAR"},{"bufferView":50,"componentType":5126,"count":399,"max":[0.9933356046676636,1.5138214826583862,0.15278667211532593],"min":[-1.0062562227249146,0.005788442678749561,-0.17189699411392212],"type":"VEC3"},{"bufferView":51,"componentType":5126,"count":399,"type":"VEC3"},{"bufferView":52,"componentType":5126,"count":399,"type":"VEC2"},{"bufferView":53,"componentType":5126,"count":399,"type":"VEC2"},{"bufferView":54,"componentType":5126,"count":399,"type":"VEC2"},{"bufferView":55,"componentType":5121,"count":399,"type":"VEC4"},{"bufferView":56,"componentType":5126,"count":399,"type":"VEC4"},{"bufferView":57,"componentType":5123,"count":1077,"type":"SCALAR"},{"bufferView":58,"componentType":5126,"count":205,"max":[0.27546849846839905,1.5784931182861328,0.1448579877614975],"min":[-0.24678155779838562,1.0005155801773071,-0.17063277959823608],"type":"VEC3"},{"bufferView":59,"componentType":5126,"count":205,"type":"VEC3"},{"bufferView":60,"componentType":5126,"count":205,"type":"VEC2"},{"bufferView":61,"componentType":5126,"count":205,"type":"VEC2"},{"bufferView":62,"componentType":5126,"count":205,"type":"VEC2"},{"bufferView":63,"componentType":5121,"count":205,"type":"VEC4"},{"bufferView":64,"componentType":5126,"count":205,"type":"VEC4"},{"bufferView":65,"componentType":5123,"count":579,"type":"SCALAR"},{"bufferView":66,"componentType":5126,"count":455,"max":[0.8526291251182556,1.540724754333496,0.14864201843738556],"min":[-0.8648098111152649,0.09167356044054031,-0.16055183112621307],"type":"VEC3"},{"bufferView":67,"componentType":5126,"count":455,"type":"VEC3"},{"bufferView":68,"componentType":5126,"count":455,"type":"VEC2"},{"bufferView":69,"componentType":5126,"count":455,"type":"VEC2"},{"bufferView":70,"componentType":5126,"count":455,"type":"VEC2"},{"bufferView":71,"componentType":5121,"count":455,"type":"VEC4"},{"bufferView":72,"componentType":5126,"count":455,"type":"VEC4"},{"bufferView":73,"componentType":5123,"count":1023,"type":"SCALAR"},{"bufferView":74,"componentType":5126,"count":2030,"max":[0.011815443634986877,2.0204315185546875,0.15369099378585815],"min":[-0.028139997273683548,1.738006830215454,-0.28210559487342834],"type":"VEC3"},{"bufferView":75,"componentType":5126,"count":2030,"type":"VEC3"},{"bufferView":76,"componentType":5126,"count":2030,"type":"VEC2"},{"bufferView":77,"componentType":5126,"count":2030,"type":"VEC2"},{"bufferView":78,"componentType":5126,"count":2030,"type":"VEC2"},{"bufferView":79,"componentType":5121,"count":2030,"type":"VEC4"},{"bufferView":80,"componentType":5126,"count":2030,"type":"VEC4"},{"bufferView":81,"componentType":5123,"count":3042,"type":"SCALAR"},{"bufferView":82,"componentType":5126,"count":61,"max":[0.09835293143987656,1.8381013870239258,0.09129969775676727],"min":[-0.1218813955783844,1.5366637706756592,-0.1550348997116089],"type":"VEC3"},{"bufferView":83,"componentType":5126,"count":61,"type":"VEC3"},{"bufferView":84,"componentType":5126,"count":61,"type":"VEC2"},{"bufferView":85,"componentType":5126,"count":61,"type":"VEC2"},{"bufferView":86,"componentType":5126,"count":61,"type":"VEC2"},{"bufferView":87,"componentType":5121,"count":61,"type":"VEC4"},{"bufferView":88,"componentType":5126,"count":61,"type":"VEC4"},{"bufferView":89,"componentType":5123,"count":141,"type":"SCALAR"},{"bufferView":90,"componentType":5126,"count":64,"max":[0.10177243500947952,1.8504410982131958,0.0908760353922844],"min":[-0.1181771382689476,1.5363281965255737,-0.1843808889389038],"type":"VEC3"},{"bufferView":91,"componentType":5126,"count":64,"type":"VEC3"},{"bufferView":92,"componentType":5126,"count":64,"type":"VEC2"},{"bufferView":93,"componentType":5126,"count":64,"type":"VEC2"},{"bufferView":94,"componentType":5126,"count":64,"type":"VEC2"},{"bufferView":95,"componentType":5121,"count":64,"type":"VEC4"},{"bufferView":96,"componentType":5126,"count":64,"type":"VEC4"},{"bufferView":97,"componentType":5123,"count":138,"type":"SCALAR"},{"bufferView":98,"componentType":5126,"count":23,"type":"MAT4"}],"bufferViews":[{"buffer":0,"byteLength":1728,"byteOffset":0,"target":34962},{"buffer":0,"byteLength":1728,"byteOffset":1728,"target":34962},{"buffer":0,"byteLength":1152,"byteOffset":3456,"target":34962},{"buffer":0,"byteLength":552,"byteOffset":4608,"target":34963},{"buffer":0,"byteLength":1728,"byteOffset":5160,"target":34962},{"buffer":0,"byteLength":1728,"byteOffset":6888,"target":34962},{"buffer":0,"byteLength":1152,"byteOffset":8616,"target":34962},{"buffer":0,"byteLength":552,"byteOffset":9768,"target":34963},{"buffer":0,"byteLength":1728,"byteOffset":10320,"target":34962},{"buffer":0,"byteLength":1728,"byteOffset":12048,"target":34962},{"buffer":0,"byteLength":1152,"byteOffset":13776,"target":34962},{"buffer":0,"byteLength":552,"byteOffset":14928,"target":34963},{"buffer":0,"byteLength":1728,"byteOffset":15480,"target":34962},{"buffer":0,"byteLength":1728,"byteOffset":17208,"target":34962},{"buffer":0,"byteLength":1152,"byteOffset":18936,"target":34962},{"buffer":0,"byteLength":552,"byteOffset":20088,"target":34963},{"buffer":0,"byteLength":1728,"byteOffset":20640,"target":34962},{"buffer":0,"byteLength":1728,"byteOffset":22368,"target":34962},{"buffer":0,"byteLength":1152,"byteOffset":24096,"target":34962},{"buffer":0,"byteLength":1800,"byteOffset":25248,"target":34962},{"buffer":0,"byteLength":1800,"byteOffset":27048,"target":34962},{"buffer":0,"byteLength":1200,"byteOffset":28848,"target":34962},{"buffer":0,"byteLength":552,"byteOffset":30048,"target":34963},{"buffer":0,"byteLength":1800,"byteOffset":30600,"target":34962},{"buffer":0,"byteLength":1800,"byteOffset":32400,"target":34962},{"buffer":0,"byteLength":1200,"byteOffset":34200,"target":34962},{"buffer":0,"byteLength":1728,"byteOffset":35400,"target":34962},{"buffer":0,"byteLength":1728,"byteOffset":37128,"target":34962},{"buffer":0,"byteLength":1152,"byteOffset":38856,"target":34962},{"buffer":0,"byteLength":552,"byteOffset":40008,"target":34963},{"buffer":0,"byteLength":1728,"byteOffset":40560,"target":34962},{"buffer":0,"byteLength":1728,"byteOffset":42288,"target":34962},{"buffer":0,"byteLength":1152,"byteOffset":44016,"target":34962},{"buffer":0,"byteLength":552,"byteOffset":45168,"target":34963},{"buffer":0,"byteLength":8736,"byteOffset":45720,"target":34962},{"buffer":0,"byteLength":8736,"byteOffset":54456,"target":34962},{"buffer":0,"byteLength":5824,"byteOffset":63192,"target":34962},{"buffer":0,"byteLength":5824,"byteOffset":69016,"target":34962},{"buffer":0,"byteLength":5824,"byteOffset":74840,"target":34962},{"buffer":0,"byteLength":2912,"byteOffset":80664,"target":34962},{"buffer":0,"byteLength":11648,"byteOffset":83576,"target":34962},{"buffer":0,"byteLength":2904,"byteOffset":95224,"target":34963},{"buffer":0,"byteLength":864,"byteOffset":98128,"target":34962},{"buffer":0,"byteLength":864,"byteOffset":98992,"target":34962},{"buffer":0,"byteLength":576,"byteOffset":99856,"target":34962},{"buffer":0,"byteLength":576,"byteOffset":100432,"target":34962},{"buffer":0,"byteLength":576,"byteOffset":101008,"target":34962},{"buffer":0,"byteLength":288,"byteOffset":101584,"target":34962},{"buffer":0,"byteLength":1152,"byteOffset":101872,"target":34962},{"buffer":0,"byteLength":456,"byteOffset":103024,"target":34963},{"buffer":0,"byteLength":4788,"byteOffset":103480,"target":34962},{"buffer":0,"byteLength":4788,"byteOffset":108268,"target":34962},{"buffer":0,"byteLength":3192,"byteOffset":113056,"target":34962},{"buffer":0,"byteLength":3192,"byteOffset":116248,"target":34962},{"buffer":0,"byteLength":3192,"byteOffset":119440,"target":34962},{"buffer":0,"byteLength":1596,"byteOffset":122632,"target":34962},{"buffer":0,"byteLength":6384,"byteOffset":124228,"target":34962},{"buffer":0,"byteLength":2154,"byteOffset":130612,"target":34963},{"buffer":0,"byteLength":2460,"byteOffset":132768,"target":34962},{"buffer":0,"byteLength":2460,"byteOffset":135228,"target":34962},{"buffer":0,"byteLength":1640,"byteOffset":137688,"target":34962},{"buffer":0,"byteLength":1640,"byteOffset":139328,"target":34962},{"buffer":0,"byteLength":1640,"byteOffset":140968,"target":34962},{"buffer":0,"byteLength":820,"byteOffset":142608,"target":34962},{"buffer":0,"byteLength":3280,"byteOffset":143428,"target":34962},{"buffer":0,"byteLength":1158,"byteOffset":146708,"target":34963},{"buffer":0,"byteLength":5460,"byteOffset":147868,"target":34962},{"buffer":0,"byteLength":5460,"byteOffset":153328,"target":34962},{"buffer":0,"byteLength":3640,"byteOffset":158788,"target":34962},{"buffer":0,"byteLength":3640,"byteOffset":162428,"target":34962},{"buffer":0,"byteLength":3640,"byteOffset":166068,"target":34962},{"buffer":0,"byteLength":1820,"byteOffset":169708,"target":34962},{"buffer":0,"byteLength":7280,"byteOffset":171528,"target":34962},{"buffer":0,"byteLength":2046,"byteOffset":178808,"target":34963},{"buffer":0,"byteLength":24360,"byteOffset":180856,"target":34962},{"buffer":0,"byteLength":24360,"byteOffset":205216,"target":34962},{"buffer":0,"byteLength":16240,"byteOffset":229576,"target":34962},{"buffer":0,"byteLength":16240,"byteOffset":245816,"target":34962},{"buffer":0,"byteLength":16240,"byteOffset":262056,"target":34962},{"buffer":0,"byteLength":8120,"byteOffset":278296,"target":34962},{"buffer":0,"byteLength":32480,"byteOffset":286416,"target":34962},{"buffer":0,"byteLength":6084,"byteOffset":318896,"target":34963},{"buffer":0,"byteLength":732,"byteOffset":324980,"target":34962},{"buffer":0,"byteLength":732,"byteOffset":325712,"target":34962},{"buffer":0,"byteLength":488,"byteOffset":326444,"target":34962},{"buffer":0,"byteLength":488,"byteOffset":326932,"target":34962},{"buffer":0,"byteLength":488,"byteOffset":327420,"target":34962},{"buffer":0,"byteLength":244,"byteOffset":327908,"target":34962},{"buffer":0,"byteLength":976,"byteOffset":328152,"target":34962},{"buffer":0,"byteLength":282,"byteOffset":329128,"target":34963},{"buffer":0,"byteLength":768,"byteOffset":329412,"target":34962},{"buffer":0,"byteLength":768,"byteOffset":330180,"target":34962},{"buffer":0,"byteLength":512,"byteOffset":330948,"target":34962},{"buffer":0,"byteLength":512,"byteOffset":331460,"target":34962},{"buffer":0,"byteLength":512,"byteOffset":331972,"target":34962},{"buffer":0,"byteLength":256,"byteOffset":332484,"target":34962},{"buffer":0,"byteLength":1024,"byteOffset":332740,"target":34962},{"buffer":0,"byteLength":276,"byteOffset":333764,"target":34963},{"buffer":0,"byteLength":1472,"byteOffset":334040}],"samplers":[{"magFilter":9729,"minFilter":9987}],"buffers":[{"byteLength":335512,"uri":"hoplite_body_lod2_2k.bin"}]}